<?xml version="1.0" encoding="utf-8"?>
<!-- Generator: Adobe Illustrator 25.0.0, SVG Export Plug-In . SVG Version: 6.00 Build 0)  -->
<svg version="1.1" id="Layer_1" xmlns="http://www.w3.org/2000/svg" xmlns:xlink="http://www.w3.org/1999/xlink" x="0px" y="0px"
	 viewBox="14 56 260 260" style="enable-background:new 14 56 260 260;" xml:space="preserve">
<style type="text/css">
	.cee0{fill-rule:evenodd;clip-rule:evenodd;fill:#007D49;}
	.cee1{fill:#FFFFFF;}
	.cee2{fill:#007D49;}
</style>
<ellipse transform="matrix(0.9525 -0.3046 0.3046 0.9525 -47.9601 52.2667)" class="cee0" cx="143.6" cy="179.9" rx="121.2" ry="121.2"/>
<path class="cee1" d="M143.4,200.6"/>
<path class="cee1" d="M101,228.4c0,0,5.2,4.9,18.3-2.2c0,0,9.3-6,16.7-5.4c0,0,8.7-0.3,16.3,8.4c0,0-10.8-8.7-26.3-1.3
	C126,228,108.9,240.1,101,228.4z"/>
<path class="cee1" d="M153.7,228.7c0,0,4.4,0.9,11.1-2.3c6.7-3.2,14.6-8,22.9,3.3c0,0-6.2-6.3-17.7-1.1
	C169.9,228.7,162.1,234.3,153.7,228.7z"/>
<path class="cee1" d="M126.7,233.2c0,0,9.9-5.1,19.7-0.9c0,0,13.2,7.3,26.4-0.9c0,0-10.7,12.5-26.5,5.3
	C146.3,236.7,135.5,231.1,126.7,233.2z"/>
<path class="cee1" d="M102.7,238.5c0,0,6.5,5.7,17.8,0.9c0,0,10.9-6.3,18.4-0.1c0,0-3.4-2.1-15.2,3.2
	C123.7,242.6,110.2,249.5,102.7,238.5z"/>
<path class="cee1" d="M143.4,64.9c-63.6,0-115.1,51.4-115.1,114.9c0,63.4,51.5,114.9,115.1,114.9c63.6,0,115.1-51.4,115.1-114.9
	C258.5,116.3,207,64.9,143.4,64.9z M144.5,259.6c-25.7,0-48.7-11.8-63.7-30.4l-0.1-0.1c31.4-17.8,84.3-24.2,128.3-1.1l-0.1,0.1
	C194,247.2,170.7,259.6,144.5,259.6z M85.2,201.8L85.2,201.8L85.2,201.8l0.2-0.1v1.8c-0.1,0-0.2,0.1-0.2,0.1l0,0l-0.1,0.1v-1.8
	c0,0,0.1,0,0.1-0.1l0,0L85.2,201.8z M85.3,204.4L85.3,204.4C85.3,204.4,85.3,204.4,85.3,204.4L85.3,204.4z M85.1,204.7
	c0.1,0,0.2-0.1,0.3-0.1v1.7l-0.1,0l-0.1,0l-0.1,0l-0.1,0v-1.7L85.1,204.7z M85.2,207.3l0.2-0.1v1.8l-0.2,0.1l-0.2,0.1v-1.8
	L85.2,207.3z M85,210L85,210l0.3-0.1v1.8l-0.2,0.1c-0.1,0-0.1,0-0.2,0.1v-1.8L85,210z M85.2,212.7l0.2-0.1v1.8l-0.1,0v0l-0.1,0h0
	c-0.1,0-0.1,0-0.2,0.1v-1.8L85.2,212.7z M85,215.5l0.1,0l0.1,0l0.1,0v1.8l-0.1,0v0l-0.1,0l-0.1,0c0,0-0.1,0-0.1,0v-1.8L85,215.5z
	 M85,218.2l0.1,0l0.1,0v0c0,0,0.1,0,0.1,0v1.8l-0.2,0.1l-0.1,0c0,0-0.1,0-0.1,0v-1.8L85,218.2z M85,220.9L85,220.9l0.1,0
	c0.1,0,0.1,0,0.2,0v1.7c-0.1,0.1-0.2,0.1-0.3,0.2l0,0l0,0l-0.1,0V221L85,220.9z M86.1,203.2L86.1,203.2L86.1,203.2l-0.1,0.1v-1.8
	l0.2-0.1l0,0c0.1,0,0.1-0.1,0.2-0.1v1.9l-0.1,0v0L86.1,203.2z M86.1,204.1L86.1,204.1l0.1-0.1l0.1,0c0,0,0.1,0,0.1,0v0.1
	c-0.1,0-0.3,0.1-0.4,0.1v-0.1L86.1,204.1z M86.4,204.3v1.5l-0.1,0L86,206v-1.5C86.1,204.4,86.3,204.4,86.4,204.3z M86.2,206.8
	L86.2,206.8c0.1,0,0.2-0.1,0.2-0.1v1.9l0,0c0,0-0.1,0-0.1,0v0l-0.3,0.1v-1.9C86.1,206.9,86.1,206.8,86.2,206.8z M86.2,209.6l0.2-0.1
	v1.9l-0.1,0l-0.1,0.1c-0.1,0-0.1,0-0.2,0.1v-1.9L86.2,209.6z M86.2,212.3c0.1,0,0.1,0,0.2-0.1v1.9l-0.1,0v0l-0.2,0.1l0,0l0,0l-0.1,0
	v-1.9C86.1,212.4,86.2,212.3,86.2,212.3z M86.2,215.1l0.2-0.1v1.9l-0.2,0.1l0,0c-0.1,0-0.1,0-0.2,0v-1.9L86.2,215.1z M86.2,217.8
	l0.1,0v1.9l-0.1,0l-0.1,0l-0.1,0l0,0l-0.1,0v-1.9L86.2,217.8z M86.3,220.6l0.1,0v1.3c-0.1,0.1-0.3,0.2-0.4,0.3v-1.4L86.3,220.6z
	 M87.3,203.5l0.2-0.1v0.3c-0.1,0-0.3,0.1-0.4,0.1v-0.2L87.3,203.5z M87,202.7v-1.9l0.1-0.1l0.3-0.2v1.9l-0.2,0.1L87,202.7z
	 M87.5,204.1v1.3l-0.3,0.1l-0.1,0.1v-1.4C87.2,204.1,87.3,204.1,87.5,204.1z M87.2,206.4L87.2,206.4l0.1-0.1l0.1,0l0.1,0v1.9
	l-0.3,0.1c0,0-0.1,0-0.1,0.1v-1.9L87.2,206.4z M87.3,209.1l0.2-0.1v1.9l-0.2,0.1l-0.2,0.1v-1.9L87.3,209.1z M87.3,211.9l0.2-0.1v1.9
	l-0.1,0v0l-0.1,0c-0.1,0-0.1,0-0.2,0.1V212L87.3,211.9z M87.2,214.8L87.2,214.8l0.3-0.1v1.9l-0.1,0l-0.1,0c-0.1,0-0.1,0-0.2,0.1
	v-1.9L87.2,214.8z M87.3,217.5l0.1,0v1.9l-0.2,0.1l0,0c-0.1,0-0.1,0-0.2,0v-1.9L87.3,217.5z M87.2,220.4l0.1,0l0.1,0l0.1,0v0.8
	c-0.1,0.1-0.3,0.2-0.4,0.3v-1L87.2,220.4z M88.2,203.1l0.3-0.1v0.5c0,0,0,0,0,0c-0.1,0-0.2,0.1-0.4,0.1v-0.4
	C88.1,203.1,88.2,203.1,88.2,203.1z M88.1,202.2v-1.9l0.1-0.1l0.2-0.1l0,0l0.1-0.1v1.9c0,0-0.1,0-0.1,0.1l-0.1,0
	C88.2,202.2,88.2,202.2,88.1,202.2z M88.5,203.8v1.1l-0.3,0.1c-0.1,0-0.1,0-0.2,0.1v-1.2C88.2,203.9,88.4,203.8,88.5,203.8z
	 M88.2,205.9L88.2,205.9l0.1-0.1l0.1,0v0l0.1,0v1.9l-0.1,0v0l-0.1,0l-0.1,0l0,0l0,0c0,0-0.1,0-0.1,0V206L88.2,205.9z M88.2,208.8
	l0.2-0.1c0,0,0,0,0.1,0v1.9c-0.1,0-0.1,0-0.2,0.1l-0.2,0.1v-1.9L88.2,208.8z M88.2,211.6L88.2,211.6l0.2-0.1l0.1,0v1.9l-0.3,0.1
	l-0.1,0v-1.9L88.2,211.6z M88.4,214.4L88.4,214.4l0.1,0v1.9l-0.3,0.1l-0.1,0v-1.9L88.4,214.4z M88.2,217.2L88.2,217.2l0.1,0l0.1,0
	l0,0l0.1,0v1.9l-0.3,0.1l-0.1,0v-1.9L88.2,217.2z M88.2,220.1L88.2,220.1L88.2,220.1l0.2-0.1l0,0l0.1,0v0.4
	c-0.1,0.1-0.3,0.2-0.4,0.3v-0.6L88.2,220.1z M89.3,202.6L89.3,202.6L89.3,202.6l0.2-0.1l0,0l0.1,0v0.7l0,0c-0.1,0-0.3,0.1-0.4,0.1
	v-0.6L89.3,202.6z M89.2,201.7v-1.9l0.3-0.2l0.1-0.1v1.9l-0.2,0.1L89.2,201.7z M89.6,203.5v0.9l-0.2,0.1l-0.2,0.1v-0.9L89.6,203.5z
	 M89.3,205.5L89.3,205.5l0.1-0.1l0.1,0l0,0l0,0c0,0,0.1,0,0.1,0v1.9l-0.3,0.1l-0.1,0.1v-1.9L89.3,205.5z M89.3,208.3L89.3,208.3
	l0.1,0l0.1,0l0.1,0v1.9l-0.2,0.1l-0.2,0.1v-1.9L89.3,208.3z M89.3,211.2L89.3,211.2l0.1,0c0,0,0,0,0,0l0,0c0,0,0.1,0,0.1,0v1.9
	l-0.3,0.1l-0.2,0.1v-1.9L89.3,211.2z M89.3,214.1L89.3,214.1l0.1,0l0.1,0v0l0.1,0v1.9l-0.3,0.1l-0.1,0v-1.9L89.3,214.1z M89.5,216.9
	L89.5,216.9c0,0,0.1,0,0.1,0v1.9l-0.3,0.1l-0.1,0V217L89.5,216.9z M89.3,219.8L89.3,219.8l0.2-0.1l0,0l0.1,0v0.1
	c-0.1,0.1-0.3,0.2-0.4,0.2v-0.2L89.3,219.8z M95.4,185.4c0.1,0,0.1,0,0.2-0.1v3.5l-0.1,0l0,0l-0.3,0.1v-3.5
	C95.3,185.4,95.3,185.4,95.4,185.4z M95.2,184v-3.5c0.1,0,0.2-0.1,0.2-0.1h0c0.1,0,0.1,0,0.2-0.1v3.5c-0.1,0-0.2,0.1-0.2,0.1
	L95.2,184z M95.3,190.3l0.3-0.1v3.5l-0.2,0.1c-0.1,0-0.1,0-0.2,0.1v-3.5L95.3,190.3z M95.3,195.2L95.3,195.2l0.3-0.1v0.6
	c-0.1,0-0.3,0.1-0.4,0.1v-0.6L95.3,195.2z M95.6,197.3v1.4l-0.3,0.1c0,0-0.1,0-0.1,0v-1.5C95.3,197.3,95.5,197.3,95.6,197.3z
	 M95.6,200.1v1.7c-0.1,0-0.3,0.1-0.4,0.1v-1.7L95.6,200.1z M95.6,202.4v1.2l-0.1,0v0l-0.2,0v0c0,0-0.1,0-0.1,0v-1.2L95.6,202.4z
	 M95.6,205v3.5l-0.4,0v-3.5L95.6,205z M95.3,210L95.3,210l0.2,0v0c0,0,0.1,0,0.1,0v3.5l-0.2,0c0,0,0,0,0,0l-0.1,0c0,0-0.1,0-0.1,0
	V210L95.3,210z M95.4,214.9l0.2,0v1.5c-0.1,0.1-0.3,0.1-0.4,0.2v-1.7C95.3,214.9,95.3,214.9,95.4,214.9z M96.3,183.6v-3.5l0.2-0.1
	c0.1,0,0.1,0,0.2-0.1v3.5c0,0-0.1,0-0.1,0l0,0L96.3,183.6z M96.5,184.9L96.5,184.9c0.1,0,0.1,0,0.2-0.1v3.5c-0.1,0-0.2,0.1-0.2,0.1
	l-0.2,0.1V185L96.5,184.9z M96.5,189.9c0.1,0,0.1,0,0.2-0.1v3.5c0,0-0.1,0-0.1,0l0,0l-0.3,0.1V190C96.3,190,96.4,190,96.5,189.9z
	 M96.7,194.9v0.5c-0.1,0-0.3,0.1-0.4,0.1V195L96.7,194.9z M96.7,197.2v1.2l-0.1,0l0,0l-0.2,0c0,0-0.1,0-0.1,0v-1.2
	C96.4,197.3,96.5,197.2,96.7,197.2z M96.4,199.9l0.2,0l0,0c0,0,0.1,0,0.1,0v1.7c-0.1,0-0.3,0.1-0.4,0.1V200
	C96.3,199.9,96.3,199.9,96.4,199.9z M96.7,202.2v1.2c0,0-0.1,0-0.1,0l0,0l-0.3,0.1v-1.2L96.7,202.2z M96.7,204.9v3.6l-0.2,0
	c-0.1,0-0.1,0-0.2,0v-3.5L96.7,204.9z M96.5,209.9l0.2,0v3.6l-0.1,0l0,0l-0.3,0v-3.5C96.3,209.9,96.4,209.9,96.5,209.9z M96.7,214.9
	v1c-0.1,0.1-0.3,0.1-0.4,0.2v-1.2L96.7,214.9z M97.4,184.6L97.4,184.6l0.3-0.1v3.6c0,0-0.1,0-0.1,0l-0.1,0c0,0,0,0,0,0l-0.1,0
	c0,0-0.1,0-0.1,0v-3.6L97.4,184.6z M97.3,183.1v-3.6l0.1,0l0.3-0.1v3.6c0,0-0.1,0-0.1,0l-0.1,0.1l0,0l-0.1,0
	C97.4,183.1,97.4,183.1,97.3,183.1z M97.4,189.6L97.4,189.6l0.3-0.1v3.6l-0.2,0.1c-0.1,0-0.1,0-0.2,0.1v-3.6L97.4,189.6z
	 M97.7,194.6v0.4c-0.1,0.1-0.3,0.1-0.4,0.2v-0.5L97.7,194.6z M97.7,197.2v1l-0.1,0l0,0l-0.2,0c0,0-0.1,0-0.1,0v-1.1
	C97.5,197.2,97.6,197.2,97.7,197.2z M97.7,199.6v1.7c-0.1,0-0.3,0-0.4,0.1v-1.7L97.7,199.6z M97.4,202.1l0.4-0.1v1.2l-0.1,0l-0.1,0
	c0,0,0,0,0,0l0,0c-0.1,0-0.1,0-0.2,0L97.4,202.1L97.4,202.1z M97.4,204.7l0.3,0v3.6c-0.1,0-0.1,0-0.2,0l0,0h0l-0.1,0
	c0,0-0.1,0-0.1,0v-3.6L97.4,204.7z M97.7,209.7v3.6c0,0-0.1,0-0.1,0v0l-0.2,0l0,0c0,0-0.1,0-0.1,0v-3.6L97.7,209.7z M97.7,214.8v0.6
	c-0.1,0.1-0.3,0.1-0.4,0.2v-0.7L97.7,214.8z M98.5,182.7L98.5,182.7c0,0-0.1,0-0.1,0v-3.6c0,0,0.1,0,0.1,0l0.3-0.1v3.6
	c0,0-0.1,0-0.1,0v0L98.5,182.7z M98.5,184.1l0.2-0.1v3.6c0,0-0.1,0-0.1,0l-0.2,0.1c0,0-0.1,0-0.1,0v-3.6
	C98.4,184.2,98.5,184.1,98.5,184.1z M98.8,189.2v3.6c-0.1,0-0.1,0-0.2,0.1l-0.2,0.1v-3.6L98.8,189.2z M98.5,194.4L98.5,194.4
	l0.2-0.1l0,0c0,0,0.1,0,0.1,0v0.2c-0.1,0.1-0.3,0.1-0.4,0.2v-0.3C98.4,194.4,98.5,194.4,98.5,194.4z M98.8,195.7L98.8,195.7
	C98.8,195.7,98.8,195.7,98.8,195.7C98.8,195.7,98.8,195.7,98.8,195.7z M98.8,197v0.9c0,0-0.1,0-0.1,0v0l-0.2,0.1c0,0,0,0-0.1,0v-0.9
	C98.5,197,98.7,197,98.8,197z M98.8,199.4v1.8c-0.1,0-0.3,0-0.4,0.1v-1.8L98.8,199.4z M98.8,201.9v1.2l-0.1,0l0,0l-0.3,0.1v-1.2
	L98.8,201.9z M98.6,204.6L98.6,204.6c0.1,0,0.1,0,0.1,0l0,0c0,0,0.1,0,0.1,0v3.6c0,0-0.1,0-0.1,0l0,0l-0.1,0l-0.1,0l0,0
	c0,0-0.1,0-0.1,0v-3.6C98.4,204.6,98.5,204.6,98.6,204.6z M98.8,209.6v3.6l-0.4,0v-3.6L98.8,209.6z M98.5,214.8L98.5,214.8l0.2,0v0
	c0,0,0.1,0,0.1,0v0.1c-0.1,0.1-0.3,0.1-0.4,0.2v-0.3C98.4,214.8,98.5,214.8,98.5,214.8z M99.9,178.4v3.7l-0.4,0.2v-3.7l0.1,0v0
	L99.9,178.4z M99.6,183.7L99.6,183.7l0.2-0.1c0,0,0.1,0,0.1,0v3.7l-0.4,0.1v-3.7L99.6,183.7z M99.6,188.9L99.6,188.9l0.1,0l0.1,0
	c0,0,0.1,0,0.1,0v3.7l-0.1,0v0l-0.3,0.1v-3.7L99.6,188.9z M99.6,194.1L99.6,194.1l0.2-0.1v0c0,0,0,0,0,0c-0.1,0.1-0.2,0.1-0.3,0.2
	v-0.1L99.6,194.1z M99.9,195.1v0.3c-0.1,0-0.3,0.1-0.4,0.1v-0.2C99.6,195.3,99.7,195.2,99.9,195.1z M99.9,196.8v0.9l-0.4,0.1v-0.9
	C99.6,196.9,99.7,196.8,99.9,196.8z M99.6,199.2L99.6,199.2l0.1,0c0.1,0,0.1,0,0.2,0v1.8c-0.1,0-0.1,0-0.2,0c-0.1,0-0.1,0-0.2,0
	v-1.8L99.6,199.2z M99.9,201.7v1.1l-0.1,0l0,0l-0.3,0.1v-1.1L99.9,201.7z M99.7,204.4c0.1,0,0.1,0,0.2,0v3.7l-0.1,0l-0.3,0v-3.7
	L99.7,204.4z M99.7,209.5L99.7,209.5c0.1,0,0.1,0,0.2,0v3.7l-0.4,0v-3.7C99.5,209.6,99.6,209.6,99.7,209.5z M113.5,187.4v11.7
	c-0.5,0.1-1,0.1-1.5,0.2c-0.9,0.1-1.7,0.2-2.5,0.3c-1,0.1-1.9,0.2-2.9,0.4c-0.4,0.1-0.9,0.1-1.3,0.2v-5.5
	C108.4,192.9,111.2,190.4,113.5,187.4z M105.3,193.4V191c3.7-3.7,6.4-8.6,8.2-13.7v8.6C111.2,188.9,108.4,191.6,105.3,193.4z
	 M106.7,200.8c0.9-0.1,1.9-0.2,2.8-0.3c1.3-0.1,2.6-0.2,4-0.3v9.3c-2.8,0.8-5.5,1.7-8.2,2.7V201C105.8,201,106.2,200.9,106.7,200.8z
	 M121.3,173.6c0.8-2.1,1.6-4.2,2.3-6.4V178h-0.1C122.7,176.6,122,175.1,121.3,173.6z M122.5,178h-3.1c0.4-0.8,0.8-1.7,1.1-2.5
	c0,0,0.3-0.9,0.5-0.7c0.1,0.3,0.3,0.6,0.5,1C121.8,176.5,122.2,177.3,122.5,178z M123.3,165.6c-0.3,1.1-0.7,2.3-1.1,3.4
	c-0.2,0.7-0.5,1.3-0.7,2c-0.1,0.4-0.3,0.7-0.4,1.1c-0.3,0.8-0.5,0.1-0.6-0.3c-1.5-3.4-2.8-6.9-3.9-10.5c0,0,0-0.1-0.1-0.1
	c0,0,0,0,0,0v-10.9h7.1v14.4C123.5,164.9,123.4,165.3,123.3,165.6z M120.5,173.7c-0.6,1.4-1.3,2.9-2,4.3h-2v-14.7
	C117.6,166.8,119,170.3,120.5,173.7z M116.8,180.9c-0.1,0.2-0.2,0.4-0.4,0.6v-0.6H116.8z M117.9,180.9h5.8v17.5
	c-1.6,0.1-3.1,0.2-4.7,0.3c-0.8,0-1.6,0.1-2.5,0.2v-15.6C117,182.5,117.4,181.7,117.9,180.9z M116.5,200l7.1-0.4v7.6
	c-2.4,0.4-4.8,1-7.1,1.5L116.5,200C116.5,200,116.5,200,116.5,200z M127,185.4v12.8l-0.8,0v-14C126.5,184.7,126.7,185.1,127,185.4z
	 M126.2,182.6v-15.5c0.3,0.9,0.5,1.8,0.8,2.8v14C126.7,183.4,126.5,183,126.2,182.6z M131.7,199.3c0.7,0,1.5-0.1,2.4-0.1
	c0.1,0,0.2,0,0.2,0l5.2,0c0.9,0,1.8,0,2.6,0l1.3,0l6.5,0.1c0.6,0,1.2,0,1.8,0c1.1,0,2.2,0,3.3,0.1l5,0.2c0.6,0,1.2,0,1.8,0.1
	c0.1,0,0.2,0,0.3,0v6.6c-11.9-1.6-24.3-1.4-36.1,0.5v-7.3L131.7,199.3z M128.2,187.1v11.2l-0.6,0v-12
	C127.8,186.5,128,186.8,128.2,187.1z M127.6,184.6v-12.9c0.2,0.6,0.4,1.2,0.6,1.8v11.9C128,185.2,127.8,184.9,127.6,184.6z
	 M129.8,189v9.2l-0.8,0v-10.1C129.2,188.4,129.5,188.7,129.8,189z M129,186.4v-10.7c0.4,1.1,0.8,2.1,1.2,3.2h-0.4v8.4
	C129.5,187.1,129.2,186.8,129,186.4z M131.2,190.5v7.6l-0.6,0v-8.2C130.8,190.1,131,190.3,131.2,190.5z M130.6,188.3v-8.4
	c0.3,0.8,0.7,1.6,1.1,2.5h-0.5v6.6C131,188.7,130.8,188.5,130.6,188.3z M132.3,191.7v6.4c-0.1,0-0.3,0-0.4,0v-6.8
	C132.1,191.4,132.2,191.6,132.3,191.7z M131.9,189.7V183c0.3,0.6,0.5,1.1,0.8,1.7h-0.4v5.4C132.2,190,132.1,189.8,131.9,189.7z
	 M133.7,192.9v5.2c-0.2,0-0.4,0-0.6,0v-5.7C133.3,192.5,133.5,192.7,133.7,192.9z M133.1,190.8v-5.4c0.3,0.6,0.7,1.2,1,1.8h-0.4v4.1
	C133.5,191.1,133.3,191,133.1,190.8z M135.3,194v4c0,0,0,0,0,0l-0.8,0v-4.6C134.8,193.6,135,193.8,135.3,194z M134.5,191.9v-4
	c0.3,0.5,0.6,1,1,1.5h-0.2v3.1C135,192.3,134.8,192.1,134.5,191.9z M136.7,194.9v3.1c-0.2,0-0.4,0-0.6,0v-3.5
	C136.3,194.6,136.5,194.7,136.7,194.9z M136.1,193v-2.7c0.4,0.6,0.8,1.1,1.3,1.7h-0.7v1.4C136.5,193.3,136.3,193.1,136.1,193z
	 M138.3,195.7v2.3c-0.3,0-0.5,0-0.8,0v-2.7C137.8,195.4,138,195.5,138.3,195.7z M137.5,193.8v-1.7c0.3,0.3,0.5,0.6,0.8,0.9v1.2
	C138,194.1,137.8,193.9,137.5,193.8z M139.7,196.2v1.8l-0.1,0c-0.2,0-0.3,0-0.5,0v-2C139.3,196.1,139.5,196.1,139.7,196.2z
	 M139.1,194.5v-0.7c0.2,0.2,0.4,0.4,0.6,0.5v0.4C139.5,194.7,139.3,194.6,139.1,194.5z M141.3,196.6v1.3l-0.8,0v-1.5
	C140.7,196.5,141,196.6,141.3,196.6z M140.5,195L140.5,195C140.5,195,140.5,195,140.5,195C140.5,195,140.5,195,140.5,195z
	 M142.1,198v-1.2c0.3,0,0.5,0.1,0.8,0.1v1L142.1,198z M143.6,198v-1c0.2,0,0.4,0,0.6,0v0.9L143.6,198z M145,198v-0.9
	c0.2,0,0.4,0,0.6,0v0.9L145,198z M146.4,198v-1c0.2,0,0.4,0,0.6-0.1v1.1L146.4,198z M147.8,198.1v-1.2c0.3,0,0.5-0.1,0.8-0.1v1.3
	L147.8,198.1z M149.4,198.1v-1.5c0.2,0,0.4-0.1,0.6-0.1v1.7L149.4,198.1z M151.6,195.9v2.2c-0.3,0-0.5,0-0.8,0v-1.9
	C151,196.1,151.3,196,151.6,195.9z M151.3,194.6c0.1-0.1,0.2-0.2,0.3-0.3v0.1C151.5,194.6,151.4,194.6,151.3,194.6z M153.4,195.1v3
	c-0.3,0-0.7,0-1,0v-2.6C152.7,195.5,153,195.3,153.4,195.1z M152.4,194.2v-0.5c0.3-0.3,0.7-0.7,1-1v1.1
	C153,193.9,152.7,194,152.4,194.2z M154.7,194.4v3.8c-0.2,0-0.4,0-0.6,0v-3.5C154.3,194.6,154.5,194.5,154.7,194.4z M154.1,193.3
	v-1.6c0.2-0.3,0.4-0.5,0.6-0.8v2.1C154.5,193.1,154.3,193.2,154.1,193.3z M156.5,193.1v5.2c-0.3,0-0.5,0-0.8,0v-4.5
	C156,193.5,156.3,193.3,156.5,193.1z M155.7,192.3v-2.9c0.3-0.4,0.5-0.9,0.8-1.3v3.6C156.3,191.9,156,192.1,155.7,192.3z
	 M158.3,191.6v6.8c-0.3,0-0.7,0-1,0v-5.8C157.7,192.2,158,191.9,158.3,191.6z M157.3,191v-4.4c0.3-0.7,0.7-1.4,1-2.1v5.6
	C158,190.4,157.7,190.7,157.3,191z M159.9,189.9v8.5c-0.3,0-0.5,0-0.8,0v-7.6C159.4,190.5,159.6,190.2,159.9,189.9z M159.1,189.3
	v-6.7c0.3-0.7,0.5-1.4,0.8-2.1v7.9C159.6,188.7,159.4,189,159.1,189.3z M162.3,186.9v11.7c-0.1,0-0.2,0-0.4,0c-0.4,0-0.8,0-1.2-0.1
	V189C161.2,188.3,161.8,187.6,162.3,186.9z M160.7,187.5v-9.3c0.6-1.8,1.1-3.5,1.6-5.4v12.5C161.8,186,161.2,186.8,160.7,187.5z
	 M169.2,172.8c0.4-1,0.7-2,1-3v5.5C169.8,174.4,169.5,173.6,169.2,172.8z M169.6,175.8h-1.5c0.1-0.3,0.3-0.7,0.4-1
	c0,0,0.3-0.9,0.4-0.7c0.1,0.3,0.3,0.7,0.4,1C169.4,175.4,169.5,175.6,169.6,175.8z M169.4,170c-0.1,0.4-0.2,0.7-0.4,1.1
	c-0.3,0.8-0.4,0.1-0.5-0.4c-0.3-0.9-0.6-1.9-0.9-2.8c-0.5-1.6-0.9-3.2-1.3-4.8c-0.4-1.4-0.7-2.9-0.9-4.3v-8.7h5v17.1
	C169.9,168.2,169.6,169.1,169.4,170z M168.4,172.8c-0.4,1-0.7,2-1.2,3h-2v-13.4C166,165.9,167.1,169.4,168.4,172.8z M166.1,178.4
	c-0.3,0.6-0.6,1.2-0.9,1.8v-1.8H166.1z M167,178.4h3.2v20.7l-1.1-0.1c-0.6,0-1.2-0.1-1.7-0.1l-2.1-0.1V182
	C165.9,180.8,166.4,179.6,167,178.4z M167.3,199.8c0.7,0,1.3,0.1,2,0.1l0.3,0c0.2,0,0.4,0,0.6,0v7.5c-1.6-0.3-3.3-0.6-5-0.9v-6.9
	L167.3,199.8z M180.6,192.1c2.1,1.9,4.5,3.4,7.1,4.5c0.8,0.3,1.6,0.6,2.4,0.8v3.5l-0.8-0.1c-1.2-0.1-2.6-0.3-4.1-0.4
	c-0.4,0-0.8-0.1-1.2-0.1c-1.8-0.2-3.8-0.4-5.9-0.6c-1.6-0.1-3.2-0.3-5-0.4V183C175.2,186.3,177.7,189.5,180.6,192.1z M173.2,181.1
	v-22.3c0.1,0.4,0.1,0.9,0.2,1.3c0.3,1.5,0.6,3.1,0.9,4.6c0.8,3.6,1.8,7.2,2.9,10.7c1.5,4.5,3.4,9,5.9,13c1.8,2.9,4,5.6,6.7,7.6
	C182.5,193.5,177.1,187.8,173.2,181.1z M178.1,200.4c1.9,0.1,3.6,0.2,5.3,0.4c0.6,0,1.2,0.1,1.8,0.1l4.8,0.4v12.2
	c-5.4-2.2-11.1-4-16.9-5.3v-8C174.9,200.3,176.5,200.4,178.1,200.4z M195.5,189.7L195.5,189.7C195.6,189.7,195.6,189.7,195.5,189.7
	l0.2,0.1l0,0l0.1,0v3l-0.2-0.1l-0.2-0.1v-3.1C195.5,189.7,195.5,189.7,195.5,189.7z M195.4,188.4v-3l0.3,0.1v0l0.1,0v3l-0.2-0.1
	L195.4,188.4z M195.5,194l0.2,0.1l0,0l0.1,0v3c0-0.1,0-0.1-0.1-0.1c-0.1,0-0.2-0.1-0.3-0.1V194C195.5,194,195.5,194,195.5,194z
	 M195.7,198.6c0,0,0.1-0.1,0.1-0.1c0,0,0,0,0,0c0,0,0,0,0.1,0v3l-0.2,0h0l-0.2,0v-2.8C195.5,198.6,195.6,198.6,195.7,198.6z
	 M195.5,202.7L195.5,202.7L195.5,202.7l0.2,0l0.1,0v3l-0.2,0l-0.2,0v-3.1C195.5,202.7,195.5,202.7,195.5,202.7z M195.6,207.1l0.2,0
	v3l-0.2,0l-0.2,0V207C195.5,207.1,195.5,207.1,195.6,207.1z M195.5,211.4L195.5,211.4C195.6,211.4,195.6,211.4,195.5,211.4l0.3,0v3
	l-0.2,0l-0.2,0v-3.1C195.5,211.4,195.5,211.4,195.5,211.4z M195.5,215.7l0.2,0l0,0l0.1,0v0.3c-0.1-0.1-0.3-0.1-0.4-0.2v-0.1
	C195.5,215.7,195.5,215.7,195.5,215.7z M196.9,190.2v3c0,0-0.1,0-0.1,0l0,0l-0.2-0.1v-3L196.9,190.2z M196.5,188.7v-3l0.3,0.1l0,0
	c0,0,0.1,0,0.1,0v3c-0.1,0-0.1,0-0.2-0.1l0,0C196.6,188.8,196.6,188.8,196.5,188.7z M196.8,194.4l0.1,0v3c0,0-0.1,0-0.1,0l-0.1,0
	l0,0c0,0-0.1,0-0.1,0l0,0v0c0,0-0.1,0-0.1,0v-3L196.8,194.4z M196.8,198.7L196.8,198.7c0,0,0.1,0,0.1,0v3l-0.2,0l-0.2,0v-3
	L196.8,198.7z M196.9,203v3l-0.1,0l-0.3,0v-3L196.9,203z M196.6,207.2l0.2,0c0,0,0.1,0,0.1,0v3l-0.1,0l-0.2,0v0l-0.1,0v-3
	C196.5,207.2,196.6,207.2,196.6,207.2z M196.9,211.5v3l-0.1,0l-0.3,0v-3L196.9,211.5z M196.6,215.8l0.2,0c0,0,0.1,0,0.1,0v0.8
	c-0.1-0.1-0.3-0.1-0.4-0.2v-0.6C196.5,215.8,196.6,215.8,196.6,215.8z M197.9,190.5L197.9,190.5l0.1,0v3c-0.1,0-0.1,0-0.2-0.1
	l-0.2-0.1v-3L197.9,190.5z M197.6,189.1v-3l0.3,0.1v0l0.1,0v3c0,0-0.1,0-0.1,0l-0.1,0L197.6,189.1z M198,194.7v3c-0.1,0-0.1,0-0.2,0
	h0l-0.2-0.1v-3L198,194.7z M197.9,198.9l0.1,0v3c0,0-0.1,0-0.1,0l0,0l-0.2,0v-3L197.9,198.9z M197.9,203.2L197.9,203.2l0.1,0v3
	c-0.1,0-0.1,0-0.2,0l-0.2,0v-3L197.9,203.2z M198,207.4v3c-0.1,0-0.1,0-0.2,0l-0.3,0v-3L198,207.4z M198,211.6v3c-0.1,0-0.1,0-0.2,0
	l-0.2,0v-3L198,211.6z M198,215.8v1.3c-0.1-0.1-0.3-0.1-0.4-0.2v-1.1L198,215.8z M198.8,190.8l0.2,0.1v2.9c0,0-0.1,0-0.1,0l-0.2-0.1
	v0l-0.1,0v-2.9C198.7,190.8,198.8,190.8,198.8,190.8z M198.7,189.5v-2.9c0,0,0.1,0,0.1,0l0.3,0.1v2.9l-0.1,0l-0.1,0h0l-0.1,0l0,0
	C198.7,189.5,198.7,189.5,198.7,189.5z M198.8,195c0.1,0,0.2,0,0.2,0.1v2.9l-0.1,0l-0.2,0v0c0,0-0.1,0-0.1,0v-2.9
	C198.7,194.9,198.8,195,198.8,195z M199,199.2L199,199.2l0.1,0v2.9c-0.1,0-0.1,0-0.2,0l0,0l-0.2,0v-2.9L199,199.2z M198.9,203.3
	c0.1,0,0.2,0,0.2,0v2.9l-0.1,0l-0.2,0c0,0-0.1,0-0.1,0v-2.9C198.7,203.3,198.8,203.3,198.9,203.3z M199,207.5l0.1,0v2.9
	c-0.1,0-0.1,0-0.2,0l-0.2,0v-2.9L199,207.5z M198.9,211.7c0.1,0,0.1,0,0.2,0v2.9l-0.1,0l-0.3,0v-2.9L198.9,211.7z M199.1,215.9v1.9
	c-0.1-0.1-0.3-0.1-0.4-0.2v-1.6L199.1,215.9z M199.9,191.1l0.1,0l0,0c0,0,0.1,0,0.1,0v2.9c-0.1,0-0.1,0-0.2-0.1l-0.1,0v0l-0.1,0
	l0-2.9L199.9,191.1z M199.8,189.8v-2.9l0.3,0.1v0c0,0,0.1,0,0.1,0v2.9l-0.2-0.1C199.9,189.9,199.8,189.9,199.8,189.8z M200.1,195.3
	l0.1,0v2.9c-0.1,0-0.1,0-0.2,0l-0.2-0.1v-2.9L200.1,195.3z M200.1,199.4L200.1,199.4l0.1,0v2.9c-0.1,0-0.1,0-0.2,0l0,0l-0.1,0
	l-0.1,0v-2.9L200.1,199.4z M200.1,203.5L200.1,203.5l0.1,0v2.9c-0.1,0-0.1,0-0.2,0l-0.2,0v-2.9L200.1,203.5z M200.2,207.7v2.9
	c-0.1,0-0.1,0-0.2,0l0,0l-0.2,0v-2.9L200.2,207.7z M199.9,211.8L199.9,211.8l0.2,0l0,0l0.1,0v2.9c-0.1,0-0.1,0-0.2,0l-0.2,0v-2.9
	C199.8,211.8,199.8,211.8,199.9,211.8z M199.9,215.9l0.2,0l0,0l0.1,0v2.4c-0.1-0.1-0.3-0.2-0.4-0.2v-2.2
	C199.8,215.9,199.8,215.9,199.9,215.9z M202.1,200.8l0.1,0v2.1l-0.2,0l-0.3-0.1v-2.2L202.1,200.8z M201.8,199.7v-2.2l0.5,0.1v2.1
	l-0.1,0l-0.2,0L201.8,199.7z M202,203.9l0.3,0v2.1l-0.1,0l-0.2,0l0,0l-0.1,0v-2.2C201.9,203.9,201.9,203.9,202,203.9z M201.9,207
	L201.9,207C202,207,202,207,201.9,207l0.3,0.1v2.1l-0.2,0l-0.3,0V207C201.8,207,201.9,207,201.9,207z M202.1,210.2l0.1,0v2.1l-0.1,0
	l-0.3,0v-2.2L202.1,210.2z M201.9,213.3L201.9,213.3C202,213.3,202,213.3,201.9,213.3l0.3,0v2.1l-0.2,0l-0.2,0v-2.2
	C201.8,213.3,201.9,213.3,201.9,213.3z M202,216.4l0.2,0v2.1l-0.1,0l-0.2,0l-0.1,0v-2.2C201.9,216.4,202,216.4,202,216.4z
	 M202.3,219.6L202.3,219.6C202.3,219.6,202.3,219.6,202.3,219.6L202.3,219.6z M203.3,201L203.3,201l0.1,0v2.1l-0.1,0l-0.2,0
	c0,0-0.1,0-0.1,0V201L203.3,201z M203,200v-2.1l0.3,0.1l0,0l0.1,0v2.1c0,0-0.1,0-0.1,0l-0.2,0l0,0C203.1,200,203,200,203,200z
	 M203.3,204.1L203.3,204.1l0.1,0v2.1c0,0-0.1,0-0.1,0l-0.2,0l0,0l0,0c0,0-0.1,0-0.1,0v-2.1L203.3,204.1z M203.2,207.2l0.3,0v2.1
	c0,0-0.1,0-0.1,0l-0.2,0c0,0-0.1,0-0.1,0v-2.1C203.1,207.2,203.2,207.2,203.2,207.2z M203.3,210.3l0.1,0v2.1l-0.2,0l-0.3,0v-2.1
	L203.3,210.3z M203.2,213.4L203.2,213.4c0.1,0,0.2,0,0.3,0v2.1l-0.1,0l-0.2,0c0,0-0.1,0-0.1,0v-2.1
	C203.1,213.4,203.2,213.4,203.2,213.4z M203.5,216.5v2.1l-0.1,0l-0.3,0v-2.1L203.5,216.5z M203.5,219.6v0.7
	c-0.2-0.1-0.3-0.2-0.5-0.3v-0.4L203.5,219.6z M204.5,201.3L204.5,201.3l0.1,0v2.1c-0.1,0-0.1,0-0.2,0l-0.3-0.1v-2.1L204.5,201.3z
	 M204.2,200.3v-2.1l0.5,0.1v2.1l-0.2,0L204.2,200.3z M204.5,204.3L204.5,204.3l0.1,0v2.1c0,0-0.1,0-0.1,0l-0.2,0l0,0l-0.1,0v-2.1
	L204.5,204.3z M204.7,207.4v2.1c-0.1,0-0.2,0-0.2,0l-0.3,0v-2.1L204.7,207.4z M204.7,210.5v2.1c-0.1,0-0.1,0-0.2,0l0,0l-0.3,0v-2.1
	L204.7,210.5z M204.5,213.5L204.5,213.5l0.1,0v2.1l-0.2,0l-0.2,0v-2.1L204.5,213.5z M204.5,216.6L204.5,216.6l0.1,0v2.1
	c-0.1,0-0.2,0-0.2,0l-0.2,0v-2.1L204.5,216.6z M204.7,219.6v1.5c-0.2-0.1-0.3-0.2-0.5-0.3v-1.2L204.7,219.6z M205.6,201.5l0.3,0.1
	v2.1l-0.2,0h0c0,0,0,0-0.1,0l-0.1,0c0,0-0.1,0-0.1,0v-2.1C205.5,201.5,205.5,201.5,205.6,201.5z M205.4,200.5v-2.1
	c0.1,0,0.1,0,0.2,0.1l0.3,0.1v2.1l-0.1,0l-0.2,0l0,0L205.4,200.5z M205.6,204.5l0.2,0v0c0,0,0.1,0,0.1,0v2.1l-0.1,0l-0.2,0l0,0
	l-0.1,0v-2.1C205.5,204.5,205.5,204.5,205.6,204.5z M205.9,207.6v2.1l-0.2,0l-0.3,0v-2.1L205.9,207.6z M205.6,210.6
	c0.1,0,0.2,0,0.3,0v2.1l-0.1,0l-0.2,0l0,0c0,0-0.1,0-0.1,0v-2.1C205.5,210.6,205.6,210.6,205.6,210.6z M205.8,213.6l0.1,0v2.1
	c-0.1,0-0.1,0-0.2,0l-0.1,0l-0.2,0v-2.1L205.8,213.6z M205.7,216.6c0.1,0,0.1,0,0.2,0v2.1l-0.1,0l-0.3,0v-2.1L205.7,216.6z
	 M205.9,219.6v2.1h-0.3c-0.1,0-0.1-0.1-0.2-0.1v-1.9L205.9,219.6z M207,201.8L207,201.8l0.1,0v2l-0.2,0l-0.3,0v-2L207,201.8z
	 M206.6,200.8v-2l0.2,0.1l0.1,0l0,0c0,0,0.1,0,0.1,0v2l-0.2,0L206.6,200.8z M207,204.8l0.1,0v2l-0.2,0l-0.3,0v-2L207,204.8z
	 M207,207.8L207,207.8l0.1,0v2c-0.1,0-0.1,0-0.2,0l-0.1,0l-0.3,0v-2L207,207.8z M207.1,210.8v2c-0.1,0-0.2,0-0.2,0h0l-0.3,0v-2
	L207.1,210.8z M207.1,213.7v2c-0.1,0-0.2,0-0.2,0l-0.3,0v-2L207.1,213.7z M206.8,216.7L206.8,216.7
	C206.8,216.7,206.8,216.7,206.8,216.7l0.3,0v2c0,0-0.1,0-0.1,0l-0.2,0l0,0l-0.1,0v-2C206.7,216.7,206.7,216.7,206.8,216.7z
	 M206.9,219.7c0.1,0,0.2,0,0.2,0v2h-0.3h-0.1v-2L206.9,219.7z M210.9,225.6c-0.9-0.7-1.8-1.4-2.7-2.1l0-25.1v-0.1l-7-1.7v-10.2
	l-6.5-2.4v-0.1l-0.1,0.1l-0.1,0v0.1l-4.3,2.4v8.1c-5.2-3.7-8.5-10.5-10.8-16.1c-2-5-3.4-10.2-4.6-15.5c-0.6-2.7-1.3-5.9-1.5-8.5
	c0,0,0-0.4-0.1-0.4c0,0,0,0,0,0v-23.2h-3v16h-5v-16h-3v38.8c0,0.1,0,0.2-0.1,0.3c-0.5,2.4-1.2,4.7-1.9,7h-0.4v1.2
	c-0.3,0.9-0.6,1.8-1,2.7h-0.6v1.5c-0.4,0.9-0.8,1.8-1.2,2.7h-0.6v1.1c-0.3,0.5-0.6,1.1-0.9,1.6h-0.9v1.4c-0.2,0.3-0.5,0.7-0.7,1
	h-0.7v0.9c-0.4,0.5-0.8,0.9-1.2,1.3h-0.6v0.5c-0.3,0.3-0.7,0.6-1.1,0.8H150v0.3c-0.4,0.2-0.8,0.5-1.2,0.6h-0.2v0.1
	c-0.2,0.1-0.4,0.2-0.5,0.2c-4.2,1.6-7.9-1.3-10.4-4.4c-4-4.8-6.4-10.9-8.5-16.7c-1.1-3.1-2.1-6.4-2.9-9.6v-34.5h-2.6v17h-7.1v-17h-3
	v45.3c-1.1,3.3-2.6,6.5-4.4,9.4c-1.1,1.8-2.4,3.5-3.8,5.1v-9.8l-1.7-1.1v-2.1l-1.2-0.8v-3.7l-0.9-0.6v-4.7l-0.7-0.5v-0.1l-0.1,0
	l-0.1-0.1v0.1l-1,0.5v4.7l-1.2,0.6v3.7l-0.8,0.3l-1,0.4v2.1l-2.4,1.1v16.3c-0.2,0-0.4,0.1-0.6,0.1c-0.2,0-0.2,1,0,1
	c0.2,0,0.4,0,0.6,0c0,0,0,0,0,0v1.8l-1.2-0.2l-1.4-0.2l0-4.5L91,194l0-3.6l-0.5-0.1l-0.8-0.2l-0.4,0.2l-0.2,0.1l0,3.5l-0.2,0.1
	l-0.4,0.2l0,5.2l-0.1,0l0,0l-1.3,0.6l-0.9,0.4l-1.3,0.6l-1,0.5v3.3c-0.1,0.1-0.2,0.1-0.2,0.1l0,0.1L84,205v18.5
	c-1.6,1.2-3.2,2.5-4.7,3.8c-10.4-13.6-16.6-30.6-16.6-49.1c0-44.9,36.6-81.3,81.7-81.3c45.1,0,81.7,36.4,81.7,81.3
	C226.1,195.9,220.5,212.3,210.9,225.6z"/>
<path class="cee1" d="M151.1,242.3c0,0,10.2,3.2,17.8-2.8c0,0,8.6-8,18.3-1.3c0,0-7.5-1.4-16.2,4.8
	C170.9,243,163.6,250.4,151.1,242.3z"/>
<path class="cee2" d="M83.2,262.4c0,0-1.6-7.6,3.3-14.2c0,0-3-2.4-6.2,3.6c0,0-2.1-3.7-6.5-4.3c0,0-0.6,3.5,2.5,6.7
	c0,0-5.7-0.1-7,3.1C69.4,257.3,77.9,256.4,83.2,262.4z"/>
<path class="cee2" d="M206.2,262.4c0,0,1.6-7.6-3.3-14.2c0,0,3-2.4,6.2,3.6c0,0,2.1-3.7,6.5-4.3c0,0,0.6,3.5-2.5,6.7
	c0,0,5.7-0.1,7,3.1C220.1,257.3,211.6,256.4,206.2,262.4z"/>
<g>
	<path d="M52.1,230.8l-1.9-3.6c-0.6-1.2-0.7-2.2-0.4-3.1c0.3-0.9,1.1-1.7,2.4-2.4l7.9-4.1c1.3-0.7,2.4-0.9,3.3-0.6
		c1,0.2,1.7,0.9,2.4,2.1l1.9,3.6L52.1,230.8z M63.6,220.2c-0.2-0.4-0.5-0.6-0.8-0.7c-0.3-0.1-0.8,0-1.3,0.3l-8.1,4.3
		c-0.5,0.3-0.9,0.6-1,0.9c-0.1,0.3-0.1,0.7,0.1,1.1l0.6,1.2l11.1-5.8L63.6,220.2z"/>
	<path d="M47.1,220.9l-2.7-6.7l2.3-0.9l1.7,4.2l4.3-1.7l-1.4-3.4l2.3-0.9l1.4,3.4l5-2l-1.7-4.2l2.3-0.9l2.7,6.7L47.1,220.9z"/>
	<path d="M43.5,211.6l-1.1-3.7c-0.4-1.3-0.3-2.3,0.2-3.1c0.5-0.8,1.5-1.5,2.8-1.9l1.7-0.5c1.4-0.4,2.5-0.4,3.4,0
		c0.9,0.4,1.5,1.3,1.9,2.5l0.4,1.2l6.9-2l0.8,2.5L43.5,211.6z M49.9,205.6c-0.1-0.4-0.3-0.7-0.6-0.8c-0.3-0.1-0.7-0.1-1.3,0.1
		l-2,0.6c-0.6,0.2-1,0.4-1.1,0.7c-0.2,0.3-0.2,0.6-0.1,1l0.4,1.2l5.2-1.5L49.9,205.6z"/>
	<path d="M40.4,200.3l-0.7-3.5l16.7-6.1l0.5,2.6l-3.3,1.1l0,0l0.6,2.9l3.5-0.2l0.5,2.4L40.4,200.3z M51.4,195.2l-8.3,2.8l0,0
		l8.8-0.5L51.4,195.2z"/>
	<path d="M38.8,191.5l-0.4-3.9c-0.1-1.4,0.1-2.4,0.7-3c0.6-0.7,1.6-1.1,3-1.2l1.1-0.1c1.8-0.2,3,0.3,3.6,1.4l0.1,0
		c0.1-0.7,0.5-1.1,1.1-1.5c0.6-0.3,1.4-0.5,2.4-0.6l3.1-0.3c0.5,0,0.9-0.1,1.2-0.2c0.3-0.1,0.6-0.2,0.9-0.3l0.2,2.7
		c-0.3,0.1-0.5,0.2-0.8,0.3c-0.2,0.1-0.7,0.1-1.3,0.2l-3.2,0.3c-0.8,0.1-1.3,0.2-1.6,0.5c-0.3,0.3-0.4,0.7-0.4,1.3l0.1,0.9l7.5-0.7
		l0.2,2.6L38.8,191.5z M46,187.2c0-0.5-0.2-0.9-0.5-1.1c-0.3-0.2-0.8-0.3-1.5-0.3l-1.4,0.1c-0.6,0.1-1.1,0.2-1.3,0.4
		c-0.3,0.2-0.4,0.6-0.3,1.1l0.1,1.2l5-0.4L46,187.2z"/>
	<path d="M40.6,178.5l0,2.8l-2.5,0l0.1-8.1l2.5,0l0,2.8l15.1,0.2l0,2.6L40.6,178.5z"/>
	<path d="M38.2,170.3l0.5-3.7l12.7-0.1l0,0l-12.3-3.2l0.5-3.7l17.5,2.2l-0.3,2.5l-13.2-1.6l0,0l13,3.5l-0.3,2.2l-13.5,0.3l0,0
		l13.2,1.6l-0.3,2.3L38.2,170.3z"/>
	<path d="M40.3,156l1.7-7l2.4,0.6l-1.1,4.4l4.5,1.1l0.9-3.5l2.4,0.6l-0.9,3.5l5.2,1.3l1.1-4.4l2.4,0.6l-1.7,7L40.3,156z"/>
	<path d="M42.9,146.3l1.1-3.1l10.8,1.1l0,0l-9.9-3.5l0.8-2.2l16.6,5.9l-0.9,2.5l-13.2-1.3l0,0l12.1,4.3l-0.8,2.2L42.9,146.3z"/>
	<path d="M50.2,134.7l-1.2,2.5l-2.3-1.1l3.5-7.3l2.3,1.1l-1.2,2.5l13.6,6.5l-1.1,2.4L50.2,134.7z"/>
	<path d="M68.1,131.2c-1,0.1-2.1-0.2-3.3-0.9l-7.7-5.1c-1.2-0.8-1.9-1.7-2.1-2.7c-0.3-1,0-2,0.7-3.1c0.7-1.1,1.6-1.7,2.6-1.8
		c1-0.1,2.1,0.2,3.3,0.9l7.7,5.1c1.2,0.8,1.9,1.7,2.1,2.7c0.3,1,0,2-0.7,3.1C70,130.5,69.1,131.1,68.1,131.2z M68,125.9l-8-5.3
		c-1-0.6-1.7-0.6-2.2,0.2c-0.5,0.8-0.3,1.5,0.7,2.1l8,5.3c1,0.6,1.7,0.6,2.2-0.2C69.1,127.2,68.9,126.5,68,125.9z"/>
	<path d="M60,113.8l4.4-5.4l1.9,1.6l-2.8,3.4l3.8,3.1l2.2-2.6l1.9,1.6l-2.2,2.6l5.9,4.8l-1.7,2L60,113.8z"/>
	<path d="M81.2,114.9c-1-0.1-2-0.6-2.9-1.6l-6.5-6.9c-0.9-1-1.4-2-1.4-3c0-1,0.4-1.9,1.3-2.8c0.9-0.9,1.9-1.2,2.9-1.2
		c1,0.1,2,0.6,2.9,1.6l1.3,1.4l-1.8,1.7l-1.4-1.5c-0.7-0.8-1.4-0.9-2.1-0.3c-0.6,0.6-0.6,1.3,0.1,2.1l6.7,7.1
		c0.7,0.8,1.4,0.9,2.1,0.3c0.6-0.6,0.6-1.3-0.1-2.1l-1.8-2l1.8-1.7l1.7,1.8c0.9,1,1.4,2,1.4,3c0,1-0.4,1.9-1.3,2.8
		C83.1,114.6,82.2,115,81.2,114.9z"/>
	<path d="M76.7,96.5l2.1-1.7l11,13.6l-2.1,1.7L76.7,96.5z"/>
	<path d="M80.5,93.5l2.2-1.5l9.2,10.2l0,0L85.6,90l2-1.4l7.9,15.9l-2.9,2L80.5,93.5z"/>
	<path d="M89.6,87.5l2.3-1.3l8.9,15.1l-2.3,1.3L89.6,87.5z"/>
	<path d="M94.4,84.7l2.4-1.2l6.7,13.4l3.9-1.9l1.1,2.2l-6.3,3.1L94.4,84.7z"/>
	<path d="M121.2,92.6l-2.2,0.7l-0.9-1c-0.7,1.3-1.5,2.1-2.3,2.3c-0.9,0.3-1.8,0.1-2.7-0.5c-0.9-0.6-1.6-1.6-2-2.8
		c-0.5-1.5-0.3-3.3,0.6-5.6c-1.4-1.4-2.4-2.8-2.8-4.1c-0.3-1-0.3-1.9,0-2.8c0.3-0.9,0.9-1.5,1.7-1.7c0.9-0.3,1.7-0.2,2.4,0.2
		c0.7,0.5,1.2,1.2,1.6,2.4c0.4,1.3,0.3,3.2-0.6,5.4l3.3,3.5c0.2-0.9,0.3-1.7,0.4-2.4l1.5,0.6c-0.1,1.4-0.3,2.5-0.5,3.3L121.2,92.6z
		 M112.5,83.7c0.4-1.6,0.5-2.8,0.2-3.6c-0.1-0.4-0.3-0.7-0.6-0.9c-0.3-0.2-0.6-0.2-0.9-0.1c-0.3,0.1-0.5,0.4-0.7,0.8
		c-0.1,0.4-0.1,0.8,0,1.2C110.8,81.9,111.5,82.7,112.5,83.7z M116.6,90.9l-3.4-3.5c-0.4,1.2-0.5,2.3-0.2,3.2c0.2,0.6,0.6,1.1,1,1.5
		c0.5,0.4,0.9,0.5,1.3,0.3C115.8,92.3,116.3,91.8,116.6,90.9z"/>
	<path d="M123,74.4l7.1-1.2l0.4,2.5l-4.5,0.8l0.8,4.6l3.6-0.6l0.4,2.5l-3.6,0.6l0.9,5.3l4.5-0.8l0.4,2.5l-7.1,1.2L123,74.4z"/>
	<path d="M132.9,72.8l3.3-0.2l3.3,10.3l0,0l-0.8-10.5l2.4-0.2l1.3,17.5l-2.7,0.2l-4.1-12.5l0,0l0.9,12.8l-2.4,0.2L132.9,72.8z"/>
	<path d="M143.9,72.1l2.7,0.1l1.3,13.6l0,0l2.1-13.5l2.4,0.1l-3.1,17.4l-3.5-0.1L143.9,72.1z"/>
	<path d="M154.7,72.6l2.6,0.3l-1.8,17.4l-2.6-0.3L154.7,72.6z"/>
	<path d="M160.3,73.2l3.9,0.7c1.3,0.2,2.3,0.7,2.8,1.5c0.5,0.8,0.6,1.8,0.4,3.2l-0.2,1.1c-0.3,1.8-1.1,2.8-2.3,3.1l0,0.1
		c0.6,0.3,1,0.8,1.1,1.4c0.2,0.7,0.1,1.5-0.1,2.5l-0.6,3c-0.1,0.5-0.1,0.9-0.2,1.2c0,0.3,0,0.6,0.1,0.9l-2.7-0.5
		c0-0.3-0.1-0.6,0-0.8c0-0.3,0.1-0.7,0.2-1.3l0.6-3.2c0.1-0.8,0.1-1.4-0.1-1.7c-0.2-0.4-0.6-0.6-1.2-0.7l-0.9-0.2l-1.3,7.4l-2.6-0.5
		L160.3,73.2z M162.5,81.2c0.5,0.1,0.9,0,1.2-0.2c0.3-0.2,0.5-0.7,0.6-1.3l0.2-1.3c0.1-0.6,0.1-1.1-0.1-1.4
		c-0.2-0.3-0.5-0.5-0.9-0.6l-1.2-0.2l-0.9,4.9L162.5,81.2z"/>
	<path d="M167.4,91.5c-0.4-0.9-0.5-2.1-0.1-3.4l2.6-8.8c0.4-1.3,1-2.3,1.9-2.8c0.9-0.5,1.9-0.6,3.2-0.3c1.2,0.4,2.1,1,2.5,1.9
		c0.4,0.9,0.5,2.1,0.1,3.4l-2.6,8.8c-0.4,1.3-1,2.3-1.9,2.8c-0.9,0.5-1.9,0.6-3.2,0.3C168.7,93.1,167.8,92.5,167.4,91.5z
		 M172.4,89.8l2.7-9.2c0.3-1.1,0-1.8-0.8-2c-0.9-0.3-1.5,0.2-1.8,1.3l-2.7,9.2c-0.3,1.1,0,1.8,0.8,2
		C171.5,91.3,172.1,90.9,172.4,89.8z"/>
	<path d="M181.8,78.6l3.1,1.3l-1.6,10.7l0,0l4-9.7l2.2,0.9l-6.7,16.2l-2.5-1l1.9-13l0,0l-4.9,11.8l-2.2-0.9L181.8,78.6z"/>
	<path d="M192.8,83.2l3.3,1.8l-4.7,11.7l0,0l7.7-10.1l3.3,1.8l-8.6,15.3l-2.2-1.2l6.5-11.6l0,0l-8.2,10.6l-1.9-1.1l4.9-12.5l0,0
		l-6.5,11.6l-2-1.1L192.8,83.2z"/>
	<path d="M205.2,90.6l5.8,4.2l-1.5,2l-3.7-2.7l-2.7,3.7l2.9,2.1l-1.5,2l-2.9-2.1l-3.2,4.3l3.7,2.7l-1.5,2l-5.8-4.2L205.2,90.6z"/>
	<path d="M213.3,96.6l2.5,2.2l-5.1,9.5l0,0l7-7.8l1.8,1.6l-11.7,13l-2-1.8l6.2-11.6l0,0l-8.6,9.5l-1.8-1.6L213.3,96.6z"/>
	<path d="M221.4,107.7l-1.9-2l1.9-1.7l5.5,6l-1.9,1.7l-1.9-2L212,119.7l-1.8-1.9L221.4,107.7z"/>
	<path d="M228.9,112.6l2.2,2.8l-12.3,12.8l-1.6-2.1l2.5-2.5l0,0l-1.8-2.4l-3,1.7l-1.5-1.9L228.9,112.6z M221.3,122l6.2-6.2l0,0
		l-7.6,4.3L221.3,122z"/>
	<path d="M234.2,119.8l1.4,2.2l-12.8,7.9l2.3,3.7l-2.1,1.3l-3.7-5.9L234.2,119.8z"/>
	<path d="M241.1,131.8l3,6.6l-2.3,1l-1.9-4.2l-4.2,1.9l1.5,3.3l-2.3,1l-1.5-3.3l-4.9,2.2l1.9,4.2l-2.3,1l-3-6.6L241.1,131.8z"/>
	<path d="M245.1,141l1,3.1l-9.2,5.7l0,0l10-3.3l0.7,2.2l-16.7,5.5l-0.9-2.6l11.2-7l0,0l-12.2,4l-0.7-2.2L245.1,141z"/>
	<path d="M232.5,156.4c0.6-0.8,1.6-1.4,3-1.7l9-1.9c1.4-0.3,2.5-0.2,3.4,0.3c0.9,0.5,1.5,1.4,1.7,2.6c0.3,1.2,0.1,2.3-0.5,3.1
		c-0.6,0.8-1.6,1.4-3,1.7l-1.5,0.3l-0.5-2.4l1.6-0.4c1.1-0.2,1.6-0.8,1.4-1.7c-0.2-0.9-0.9-1.2-2-1l-9.4,2c-1.1,0.2-1.6,0.8-1.4,1.7
		c0.2,0.9,0.8,1.2,2,1l3.4-0.7l-0.3-1.3l2.5-0.5l0.8,3.7l-5.6,1.2c-1.4,0.3-2.5,0.2-3.4-0.3c-0.9-0.5-1.5-1.4-1.7-2.6
		C231.7,158.3,231.9,157.3,232.5,156.4z"/>
	<path d="M250.6,162.3l0.4,2.6l-17.4,2.4l-0.4-2.6L250.6,162.3z"/>
	<path d="M251.4,167.9l0.2,3.3l-10.4,3.2l0,0l10.5-0.6l0.1,2.3l-17.6,1l-0.2-2.7l12.6-3.9l0,0l-12.8,0.7l-0.1-2.3L251.4,167.9z"/>
	<path d="M251.8,179.5l-0.3,7.2l-2.5-0.1l0.2-4.5l-4.6-0.2l-0.2,3.6l-2.5-0.1l0.2-3.6l-5.4-0.2l-0.2,4.5l-2.5-0.1l0.3-7.2
		L251.8,179.5z"/>
	<path d="M251.2,189.4l-1,7.1l-2.5-0.3l0.6-4.5l-4.6-0.6l-0.5,3.6l-2.5-0.3l0.5-3.6l-5.4-0.7l-0.6,4.5l-2.5-0.3l1-7.1L251.2,189.4z"
		/>
	<path d="M249.7,199.3l-0.9,3.8c-0.3,1.3-0.9,2.2-1.7,2.7c-0.8,0.5-1.9,0.5-3.2,0.2l-1.1-0.3c-1.8-0.4-2.8-1.3-3-2.5l0,0
		c-0.3,0.6-0.9,0.9-1.5,1c-0.7,0.1-1.5,0-2.5-0.2l-3-0.7c-0.5-0.1-0.9-0.2-1.2-0.2c-0.3,0-0.6,0-0.9,0l0.6-2.6c0.3,0,0.6,0,0.8,0
		c0.3,0,0.7,0.1,1.3,0.3l3.1,0.8c0.8,0.2,1.4,0.2,1.7,0c0.4-0.2,0.6-0.5,0.8-1.1l0.2-0.9l-7.3-1.8l0.6-2.6L249.7,199.3z
		 M241.5,201.1c-0.1,0.5-0.1,0.9,0.1,1.3c0.2,0.3,0.6,0.6,1.3,0.7l1.3,0.3c0.6,0.2,1.1,0.2,1.4,0c0.3-0.1,0.5-0.4,0.7-0.9l0.3-1.2
		l-4.9-1.2L241.5,201.1z"/>
	<path d="M247,209.7l-0.8,2.5l-16.7-5.4l0.8-2.5L247,209.7z"/>
	<path d="M245.2,215.1l-1.3,3.1l-10.7-1.7l0,0l9.7,4.1l-0.9,2.2l-16.2-6.8l1.1-2.5l13.1,2l0,0l-11.8-4.9l0.9-2.2L245.2,215.1z"/>
	<path d="M225.4,218.4c1-0.2,2.1,0,3.4,0.7l8.1,4.4c1.2,0.7,2,1.5,2.4,2.5c0.3,1,0.2,2-0.4,3.1c-0.6,1.1-1.4,1.8-2.4,2
		c-1,0.2-2.1,0-3.4-0.7l-1.3-0.7l1.2-2.2l1.5,0.8c1,0.6,1.7,0.4,2.2-0.4c0.4-0.8,0.2-1.5-0.9-2l-8.4-4.6c-1-0.5-1.7-0.4-2.2,0.4
		c-0.4,0.8-0.2,1.5,0.8,2l3,1.7l0.6-1.2l2.2,1.2l-1.8,3.3l-5-2.8c-1.2-0.7-2-1.5-2.4-2.5c-0.3-1-0.2-2,0.4-3.1
		C223.6,219.3,224.4,218.6,225.4,218.4z"/>
</g>
<g>
	<path d="M92.2,271.6c-0.3-0.9-0.1-2,0.5-3.2l0.4-0.8l2.3,1.2l-0.5,1c-0.5,1-0.3,1.6,0.5,2.1c0.4,0.2,0.8,0.3,1.1,0.1
		c0.3-0.1,0.6-0.4,0.9-1c0.3-0.6,0.5-1.2,0.4-1.9c-0.1-0.6-0.3-1.5-0.8-2.5c-0.6-1.4-0.9-2.5-0.9-3.4c0-0.9,0.1-1.8,0.6-2.6
		c0.6-1.2,1.4-1.9,2.3-2.2c1-0.3,2-0.2,3.2,0.4c1.2,0.6,1.9,1.4,2.2,2.3c0.3,0.9,0.1,2-0.5,3.2l-0.3,0.6l-2.3-1.2l0.4-0.8
		c0.3-0.5,0.3-0.9,0.3-1.3c-0.1-0.3-0.3-0.6-0.7-0.8c-0.8-0.4-1.5-0.2-1.9,0.8c-0.3,0.5-0.4,1.1-0.3,1.7c0.1,0.6,0.3,1.5,0.8,2.5
		c0.6,1.4,0.9,2.5,0.9,3.4c0,0.9-0.2,1.8-0.7,2.7c-0.6,1.2-1.4,2-2.4,2.3c-1,0.3-2,0.2-3.2-0.4C93.2,273.4,92.5,272.6,92.2,271.6z"
		/>
	<path d="M101.7,276.3c-0.4-0.9-0.3-2,0.2-3.3l4.6-11.8l2.6,1l-4.7,11.9c-0.2,0.5-0.2,1-0.1,1.3c0.1,0.3,0.4,0.6,0.8,0.7
		c0.4,0.2,0.8,0.2,1.1,0c0.3-0.1,0.6-0.5,0.8-1l4.7-11.9l2.5,1l-4.7,11.8c-0.5,1.2-1.2,2.1-2.1,2.5c-0.9,0.4-2,0.4-3.2-0.1
		C102.9,277.9,102.1,277.2,101.7,276.3z"/>
	<path d="M111.7,279.9c-0.5-0.9-0.5-2-0.1-3.2l0.3-0.9l2.5,0.7l-0.3,1.1c-0.3,1,0,1.7,0.9,1.9c0.4,0.1,0.8,0.1,1.1-0.1
		c0.3-0.2,0.5-0.6,0.7-1.1c0.2-0.7,0.2-1.3,0-1.9c-0.2-0.6-0.6-1.4-1.3-2.3c-0.8-1.2-1.4-2.3-1.6-3.1c-0.2-0.9-0.2-1.7,0.1-2.7
		c0.4-1.3,1-2.1,1.8-2.6c0.9-0.5,1.9-0.6,3.2-0.2c1.3,0.4,2.1,1,2.6,1.8c0.5,0.9,0.5,2,0.1,3.2l-0.2,0.7l-2.5-0.7l0.2-0.8
		c0.2-0.5,0.2-1,0-1.3c-0.2-0.3-0.4-0.5-0.9-0.7c-0.9-0.2-1.5,0.1-1.8,1.2c-0.2,0.6-0.2,1.2,0,1.8c0.2,0.6,0.6,1.4,1.3,2.3
		c0.8,1.2,1.4,2.3,1.6,3.1c0.2,0.9,0.2,1.8-0.1,2.8c-0.4,1.3-1,2.2-1.9,2.7c-0.9,0.5-2,0.6-3.3,0.2
		C113,281.4,112.1,280.8,111.7,279.9z"/>
	<path d="M125.5,269.6l-2.8-0.5l0.4-2.3l8.3,1.5l-0.4,2.3l-2.8-0.5l-2.5,14l-2.7-0.5L125.5,269.6z"/>
	<path d="M129.4,284.6l-0.9-0.1l0.3-2.5l2.6,0.3l-0.3,2.2l-1.8,2.9l-1.3-0.2L129.4,284.6z"/>
	<path d="M138.9,284.6c-0.7-0.7-1-1.8-1-3.1l0-0.9l2.6,0l0,1.1c0,1.1,0.4,1.6,1.4,1.6c0.5,0,0.8-0.1,1.1-0.4
		c0.2-0.3,0.4-0.7,0.4-1.3c0-0.7-0.1-1.3-0.5-1.8c-0.3-0.5-0.9-1.2-1.8-1.9c-1.1-1-1.9-1.8-2.3-2.6c-0.4-0.8-0.6-1.6-0.6-2.6
		c0-1.3,0.4-2.3,1.1-3c0.7-0.7,1.7-1,3.1-1c1.3,0,2.3,0.4,3,1.1c0.7,0.7,1,1.8,1,3.1l0,0.7l-2.6,0l0-0.9c0-0.6-0.1-1-0.3-1.2
		c-0.2-0.3-0.6-0.4-1-0.4c-0.9,0-1.4,0.5-1.4,1.6c0,0.6,0.2,1.2,0.5,1.7c0.3,0.5,0.9,1.2,1.8,1.9c1.1,1,1.9,1.8,2.3,2.6
		c0.4,0.8,0.6,1.7,0.6,2.7c0,1.4-0.4,2.4-1.1,3.1c-0.7,0.7-1.8,1.1-3.1,1C140.6,285.7,139.6,285.4,138.9,284.6z"/>
	<path d="M150.3,278.3l-4.1-9.2l2.9-0.2l2.4,5.9l0.1,0l1.4-6.2l2.7-0.2l-2.5,9.8l0.6,7l-2.7,0.2L150.3,278.3z"/>
	<path d="M156.2,268.1l2.7-0.5l2.5,14l4.4-0.8l0.4,2.3l-7.1,1.3L156.2,268.1z"/>
	<path d="M164,266.7l2.6-0.7l1.9,6.5l2.8-0.8l-1.9-6.5l2.6-0.7l4.6,15.9l-2.6,0.7l-2-7.2l-2.8,0.8l2,7.2l-2.6,0.7L164,266.7z"/>
	<path d="M173.5,263.9l7-2.8l0.9,2.2l-4.4,1.7l1.6,4.1l3.5-1.4l0.9,2.2l-3.5,1.4l1.9,4.7l4.4-1.7l0.9,2.2l-7,2.8L173.5,263.9z"/>
	<path d="M184.3,261.9l-2.6,1.3l-1.1-2.1l7.5-3.9l1.1,2.1l-2.6,1.3l6.5,12.6l-2.4,1.2L184.3,261.9z"/>
</g>
</svg>
