<?xml version="1.0" encoding="utf-8"?>
<!-- Generator: Adobe Illustrator 25.0.0, SVG Export Plug-In . SVG Version: 6.00 Build 0)  -->
<svg version="1.1" id="Layer_1" xmlns="http://www.w3.org/2000/svg" xmlns:xlink="http://www.w3.org/1999/xlink" x="0px" y="0px"
	 viewBox="4 40 280 280" style="enable-background:new 4 40 280 280;" xml:space="preserve">
<style type="text/css">
	.sust0{fill:#E7147C;}
	.sust1{fill:#9A9999;}
	.sust2{fill:#FBD115;}
	.sust3{fill:#2C8842;}
	.sust4{fill:#111110;}
	.sust5{fill:#FFFFFF;}
	.sust6{fill:#171213;}
	.sust7{fill-rule:evenodd;clip-rule:evenodd;fill:#111110;}
</style>
<path d="M144.7,49.1 C126.5,56,70.4,73.9,36.7,151.2 L33.8,158.7 C7.6,210.1,40.3,283.5,109.2,283.5 H178.5 C249.4,283.5,279.6,215.4,254.5,160.8 L251.6,152.7 C225.2,76,144.7,49.1,144.7,49.1 Z M88,287 h115 v28 h-115 Z" fill="#FFFFFF" />
<g>
	<polygon class="sust0" points="125.9,288.4 89.2,288.4 89.2,312.2 91.8,312.2 91.8,291.9 125.9,291.9 	"/>
	<path class="sust0" d="M97.8,299.5l15.1,5.4v4.2H97.8v3.5h15.5c3.2,0,3.1-3,3.1-3.7v-4.1h6.9v7.4h2.6v-16.9H97.8V299.5z M123.3,297.5
		v5.6h-8l-12.7-5.6H123.3z"/>
	<polygon class="sust0" points="130.3,312.2 154.3,312.2 157.3,309.2 133.7,309.2 133.7,291.9 164.4,291.9 164.4,295.3 157.5,295.3 
		155.7,296.9 153.3,295.3 137.6,295.3 137.6,304.8 148.9,304.8 148.9,302.3 141.1,302.3 141.1,298.4 152.6,298.4 154,300.4 
		154,304.8 157.5,304.8 157.5,300 158.3,298.4 164.4,298.4 164.4,312.2 168.3,312.2 168.3,288.4 130.3,288.4 	"/>
	<polygon class="sust0" points="200.7,297.5 200.7,288.4 171.3,288.4 171.3,291.9 198.6,291.9 198.6,294 171.3,294 171.3,312.2 
		200.7,312.2 200.7,302.3 179.1,302.3 179.1,306.6 196.8,306.6 196.8,308.3 174.8,308.3 174.8,297.5 	"/>
</g>
<g>
	<path class="sust1" d="M139.2,99.3c-3.3,1.3-11,3.4-11.9,16.3c-6.2,9.9-40.8,63.5-42.9,66.9c-2.1,3.4-1.7,7,2.3,3.4l51.8-64.7
		c1.7-2.3,5.6-6,10.3-0.5c7.2,8.5,51.2,64,51.2,64c1.9,1.9,4.6,0.6,2.3-2.8c-2.3-3.4-42-66.4-42-66.4s1.2-11.8-11-16.3V86.4
		c0,0-4.6-6.1-10,0C139.4,91.9,139.2,99.3,139.2,99.3"/>
	<path class="sust1" d="M66.8,210.2L80,189.3c0,0,2.6-1.6,2.4,1.7C79.1,195.3,66.8,210.2,66.8,210.2"/>
	<path class="sust1" d="M221.6,210.4L206,187.2c0,0-2.6-1.1-2.4,2.3C206.9,193.7,221.6,210.4,221.6,210.4"/>
</g>
<g>
	<path class="sust0" d="M128.9,198.2c-4.7-2.7-1.7-17.5,6.5-32.3c6.6-11.9,14.9-20.9,20.6-22.5c1.3-0.4,2.4-0.3,3.3,0.2
		c4.7,2.7,1.7,17.5-6.6,32.3C144.6,190.7,133.6,200.9,128.9,198.2 M155.8,142.4c-5.9,1.7-14.5,10.9-21.2,23
		c-8.8,15.8-11.5,30.6-6.2,33.7c5.4,3.1,16.5-6.9,25.3-22.7c8.8-15.8,11.5-30.6,6.2-33.7C158.7,142,157.4,141.9,155.8,142.4"/>
	<path class="sust0" d="M135.5,176c-6.8-11.8-10.3-23.6-8.8-29.4c0.4-1.3,1-2.3,1.8-2.8c0.9-0.5,2-0.6,3.3-0.2
		c5.7,1.5,14.1,10.5,20.8,22.2c8.4,14.7,11.6,29.4,7,32.2C155,200.7,144,190.7,135.5,176 M128.1,142.9c-1.1,0.7-1.9,1.8-2.3,3.4
		c-1.6,6.1,2,18.2,8.9,30.2c9,15.7,20.2,25.5,25.5,22.4c5.3-3.1,2.4-17.9-6.6-33.6c-6.9-12-15.5-21.1-21.5-22.7
		C130.5,142.1,129.2,142.2,128.1,142.9"/>
	<path class="sust0" d="M144.1,181c-16.7-0.1-30.8-4.8-30.8-10.3c0-1,0.5-2,1.5-3c4.2-4.2,16-7,29.4-6.9c13.4,0.1,25.2,3,29.3,7.3
		c1,1,1.4,2,1.4,3c0,1-0.5,2-1.5,3C169.3,178.3,157.5,181.1,144.1,181 M114,166.9c-1.2,1.2-1.8,2.4-1.8,3.7
		c0,6.3,13.9,11.2,31.8,11.3c13.7,0.1,25.8-2.8,30.2-7.2c1.2-1.2,1.8-2.4,1.8-3.7c0-1.3-0.6-2.6-1.7-3.8c-4.3-4.5-16.4-7.5-30.1-7.6
		C130.6,159.6,118.4,162.5,114,166.9"/>
</g>
<path class="sust2" d="M144.7,49.1c-18.2,6.9-74.3,24.8-108,102.1h33.2c0,0,12.9-43.6,75.2-73.7c16.7,7.5,58.4,34,74,75.2h32.6
	C251.6,152.7,225.2,76,144.7,49.1"/>
<g>
	<path class="sust3" d="M223.1,142.8c0,0,6.5-2.9,12.1,2.7c-0.6-3.5-1.5-12.8,0.1-14.9c-1.4,0.3-4.7,2.1-3.7,5.4
		c-1.2-2.7-3.5-3.8-5-4.2c-0.1,2.1,0.5,4.5,3.4,6.9C227.6,138.3,222.5,137.7,223.1,142.8"/>
	<path class="sust3" d="M65.2,142.8c0,0-6.5-2.9-12.2,2.7c0.7-3.5,1.5-12.8-0.1-14.9c1.4,0.3,4.7,2.2,3.7,5.4c1.2-2.7,3.5-3.8,5-4.2
		c0.1,2.1-0.5,4.5-3.4,6.9C60.7,138.3,65.8,137.7,65.2,142.8"/>
</g>
<path class="sust3" d="M215.4,107.4c-6.4-7.6-13.3-14.3-20.4-20.8v0l-0.7-0.6c-0.2-0.6-0.4-1-0.4-1.4c0.1-0.2,0.2-0.5,0.3-1l-0.6-1
	c-1.2,1.5-2,3-2.4,4.7c0.1-1.4,0-2.5-0.3-3.2c-0.4-1.2-1.5-2.5-3.4-4l-1.8-1.4l0,0.1c-6.7-5.3-13.6-10.4-21.5-14.6l-0.1-0.1
	l-1.2-0.6c0,0,0,0,0,0l0,0l-0.9-0.4c-0.4-0.5-0.7-0.9-0.8-1.3c0-0.2,0-0.5,0-1.1l-0.9-0.9c-0.7,1.8-1,3.5-0.9,5.2
	c-0.3-1.4-0.8-2.4-1.3-3c-0.9-0.9-2.4-2.1-5-2.7l-2.6-0.6l0.1,0c-12.4-2.7-23.4,3.9-31.8,8.8l0,0c-0.1,0.1-0.2,0.1-0.3,0.2
	c-0.1,0.1-0.2,0.1-0.3,0.2h0.1c-6.6,4.2-12.7,8.8-18.6,13.7l0,0l-0.8,0.7c0,0,0,0-0.1,0l-0.8,0.7c-0.6,0.2-1,0.2-1.4,0.2
	c-0.2-0.1-0.5-0.2-0.9-0.4l-1.1,0.5c1.2,1.5,2.6,2.5,4.2,3.1c-1.4-0.3-2.4-0.4-3.1-0.2c-1.2,0.3-2.7,1.2-4.4,2.8l-0.3,0.3
	c-1.1,0.8-1.9,1-2.5,0.6c-0.6,0.2-1.2,0.4-1.7,0.7c1,1,2.6,2.2,4.7,3.7c-0.7-0.1-1.9,0-3.7,0.5c-2.1,0.5-3.4,1-4.1,1.6
	c-0.9,0.9-1.6,1.9-2.2,3.1c-0.6,1.1-0.8,2.2-0.9,3.2c-0.7-0.2-1.6,0-2.9,0.8c-1.1,0.6-2,1.5-2.8,2.4c-1.3,1.5-2.6,3.2-3.9,4.8
	l2.7-1.6c1.6-2,2.6-3.1,3-3.5c1-1,2-1.4,3-1.4c-0.6,0.8-1,1.7-1.3,2.7c-0.4,1.2-0.3,2.1,0.1,2.5c0.4,0.3,0.9,0.3,1.7-0.1
	c0.6-0.3,1.2-0.8,1.7-1.3c0.5-0.6,1-1.2,1.3-2c0.4-0.8,0.6-1.5,0.5-2.1c1.4-0.2,2.6-0.9,3.6-2c1.6-1.6,2.1-2.7,1.3-3.5
	c-0.3-0.3-0.9-0.3-1.9,0c-0.4,0.1-1.2,0.6-2.5,1.3c-0.2-0.2-0.1-0.7,0.3-1.4c0.4-0.6,0.7-1,1.1-1.4c0.6-0.6,1.6-1.1,2.9-1.5
	c1.4-0.4,2.2-0.4,2.5,0l4.7,5.5l2.8-1l-7.9-8.8l2.8-2.6c0.6-0.4,1.2-0.8,1.8-1.1c1.3-0.6,2.3-0.6,2.8,0l5.6,6.7l2.6-0.7l-7.7-9.4
	l3-2.5c2.1-1.8,4.3-3.4,6.5-5.1c1-0.5,1.7-0.6,2.1-0.5l-2.7,3c-0.9,1.2-1.2,2-0.8,2.5c0.3,0.4,0.8,0.4,1.6,0.1
	c0.6-0.2,1.1-0.6,1.7-1.1c0.7-0.6,1.4-1.4,2.1-2.3c0.8-1.1,1-2,0.7-2.5c0.3-0.3,0.6-0.6,0.9-0.8c0.9-0.6,1.7-1.1,2.6-1.4
	c1.2-0.4,2-0.4,2.3,0.1c0.3,0.5-0.3,1.6-1.8,3.2c-1.3,1.4-2.6,2.6-3.9,3.5c-2.3,1.7-4.5,3.1-6.9,4l4.2,0.7c2.9-1.9,6.1-3.5,9.6-4.8
	c3.7-1.3,7-1.9,9.8-1.9l-1.6-0.9c-2.2,0.1-3.7,0.2-4.2,0.3c-1.5,0.2-3.1,0.6-4.6,1.1c-1.7,0.6-2.6,1-2.8,1l0.1-0.1
	c3.5-3.5,5-5.7,4.2-7c-0.5-0.8-1.8-1-3.8-0.6c-1.7,0.4-3.2,1.1-4.4,2l-0.2,0.1c-0.7,0-1.1-0.1-1.3-0.1c3.4-2.5,6.9-4.8,10.5-7
	c3.1-1.8,6.3-3.5,9.7-4.9c-0.7,0.6-1.4,1.2-1.9,2.1c-0.6,1-0.8,1.8-0.6,2.2c0.4,0.9,1.4,1.2,2.9,1.1c1.3,0,2.6-0.3,3.8-0.8
	c0.5-0.2,1.2-0.6,2.2-1c1-0.5,1.7-0.8,2.2-0.9c0.4-0.1,0.7-0.1,1,0.1c0.3,0.2,0.5,0.4,0.5,0.6c0.1,0.5-0.6,0.9-2,1.7
	c-1.1,0.6-2.2,0.9-3.3,1.4c-2.5,0.9-4.8,1.2-7,0.8c-2-0.4-3.4-1.1-3.9-2.3l-0.3-0.6l-1.5,0.4c1.1,2,2.6,3.3,4.6,4
	c2.7,1,5.8,0.6,9.5-0.8c1.4-0.4,2.5-0.9,3.6-1.7c1.3-0.7,2.1-1.6,2-2.7c0-0.7-0.5-1.3-1.6-1.9c-1-0.6-2.1-0.7-3.1-0.6l-2.7,1.4
	c-1.2,0.8-2,1.2-2.6,1.5c-1.2,0.5-2,0.5-2.2,0c-0.2-0.4,0.1-1.2,0.8-2.2c0.8-1,1.5-1.7,2.3-2l0.2-0.1c2,0.4,4.1,0.4,6.2,0.3
	c1.7,0.1,3.9-0.2,6.7,0.3c-1.3,1.1-1.8,2.2-1.9,3.2c0,0.7,0.2,1.6,0.4,2.4c0.4,1.1,0.7,1.9,0.8,2.4c0.4,0.1,1,0.4,1.8,0.7l0.1,0
	c-0.7-1.6-1.1-2.8-1-3.6c0.4-2.3,2-3.7,5.4-4.1c-1.2-0.9-2.4-1.9-3.7-2.8c-3.1,0-5.1-0.1-6.1,0.2c-1.2,0.1-2.5,0.1-3.9,0.2
	c-1.7,0.2-2.7,0.2-2.7-0.2c0-0.1,0.2-0.4,0.8-0.7c0.6-0.3,1-0.5,1.2-0.6c5.4-1.4,11.5-0.4,16.3,1.3c0.7,0.3,1.3,0.7,1.8,1.1
	c1.3,1,1.8,1.8,1.4,2.6l-3.5,8l1.6,2.1l5.2-11c1.4,0.7,2.8,1.4,4.1,2.2c6.2,3.5,11.9,7.5,17.3,11.8l-1.9,2.5c0-1.7-0.8-3.2-2.6-4.5
	c-0.4-0.3-1-0.5-1.8-0.8c-0.9-0.2-1.5-0.2-1.6,0c-0.8-1.8-2.2-3.3-4.2-4.6c-1.3-0.8-2.5-1.3-3.8-1.4c-1.4-0.1-2.4,0.3-2.9,1.2
	c-0.6,1-0.2,2.2,1,3.6c0.9,1.1,2.1,2.1,3.6,3c0.6,0.4,1.4,0.8,2.1,1.1c1,0.4,1.7,0.5,1.9,0.1c0.3-0.5,0.3-1.1-0.1-1.8
	c-0.4-0.7-0.9-1.3-1.6-1.7c-0.5-0.3-1.1-0.6-1.7-0.8c-0.8-0.2-1.2-0.1-1.5,0.2c-0.2,0.3-0.1,0.7,0.2,1.2c-1.9-1.4-2.6-2.5-2.2-3.2
	c0.4-0.6,1.2-0.8,2.4-0.4c0.9,0.3,1.9,0.7,2.8,1.3c1,0.6,1.8,1.4,2.6,2.3c0.9,1.1,1.2,2,1.1,2.7l1,0.5c0.1-0.3,0.2-0.6,0.3-0.7
	c0.4-0.6,1.2-0.5,2.3,0.3c0.5,0.4,1,0.9,1.4,1.6c0.5,0.7,0.6,1.3,0.3,1.7l-3.8,5.1l1.4,2.5l7.3-9.4l3.1,2.5c0.6,0.6,1.1,1.1,1.5,1.8
	c0.8,1.3,1,2.2,0.4,2.9l-5.6,6.7l1,2.5l7.9-9.2l3,2.7c5.2,4.7,10.1,9.7,14.9,14.9l-2.3,2.2c0.3-1.7-0.3-3.3-1.8-4.9
	c-0.3-0.4-0.9-0.7-1.6-1.1c-0.8-0.4-1.4-0.5-1.6-0.3c-0.5-1.9-1.5-3.7-3.2-5.2c-1.1-1-2.2-1.7-3.4-2.1c-1.3-0.4-2.3-0.2-3,0.5
	c-0.8,0.9-0.7,2.1,0.3,3.7c0.7,1.3,1.6,2.5,2.9,3.7c0.6,0.5,1.2,1,1.9,1.5c1,0.6,1.6,0.7,1.9,0.4c0.4-0.4,0.5-1,0.2-1.8
	c-0.2-0.7-0.6-1.4-1.2-2c-0.4-0.4-1-0.8-1.5-1.1c-0.7-0.3-1.2-0.4-1.5-0.1c-0.2,0.2-0.2,0.6-0.1,1.2c-1.6-1.8-2.1-2.9-1.5-3.6
	c0.5-0.5,1.3-0.5,2.4,0.1c0.9,0.4,1.7,1,2.5,1.8c0.8,0.8,1.5,1.8,2,2.8c0.7,1.2,0.9,2.2,0.6,2.8l0.9,0.7c0.1-0.3,0.3-0.5,0.4-0.7
	c0.5-0.5,1.3-0.3,2.2,0.8c0.4,0.5,0.8,1.1,1.1,1.8c0.3,0.9,0.3,1.4,0,1.7l-4.7,4.4l0.9,2.7l8.9-7.9l3.1,3.8L215.4,107.4"/>
<path class="sust4" d="M33.8,158.7c-26.2,51.4,6.5,124.8,75.4,124.8h69.3c70.9,0,101.1-68.1,76-122.7h-32.9
	c9.1,15.2,10.3,82.4-40.2,82.4h-76c-25.1-2-57-29.5-38.5-84.4C52.8,158.8,33.8,158.7,33.8,158.7"/>
<g>
	<path class="sust5" d="M43.8,202.3c-1.1-1.3-1.7-2.5-1.7-3.6c-0.1-1.1,0.3-1.6,1.2-1.7c0.5,0,1.2,0.2,2,0.8c0.9,0.6,1.3,1.2,1.4,1.7
		C45,201,44.1,201.9,43.8,202.3 M44.9,207.1c1,1.1,1.5,1.9,1.6,2.5c0.1,0.4,0.1,0.9,0.1,1.5c-0.1,0.8-0.3,1.2-0.7,1.3
		c-0.4,0.1-1-0.1-1.7-0.7c0.3-0.5,0.4-1,0.3-1.5c-0.1-0.5-0.3-0.9-0.7-1.3c-0.4-0.4-1-0.6-1.5-0.4c-0.8,0.2-1.1,0.9-0.8,2.1
		c0.1,0.7,0.5,1.3,1.1,1.9c-0.3,0.8-0.7,1.3-1.1,1.4c-0.5,0.2-1-0.1-1.4-0.6c-0.3-0.4-0.6-0.9-0.7-1.4c-0.3-1.2-0.1-2.5,0.4-3.8
		c0.6-1.6,1.5-2.4,2.9-2.7C43,205.2,43.9,205.8,44.9,207.1 M36.8,185.3c2.2-1.6,4-3.9,5.5-7.1c1,2.8,1.7,5.3,2.2,7.6L36.8,185.3
		L36.8,185.3z M54.3,218L54.3,218l-0.2-0.4c0.2-0.4,0.4-0.8,0.6-1.1c0.1-0.1,0.5-0.3,1-0.7l0.2-0.8c-2.3,0.9-4.2,2-5.7,3.2
		c1.1-1.1,1.8-1.9,2.1-2.5c0.5-0.9,0.4-2,0-3.4l-0.5-1.4l0,0c-2-6.9-2.8-14.2-2.6-21.6c0.1-5.4,0.8-10.9,1.8-16.2l0.3-1.5l1.5-0.3
		c0.9,0.3,1.6,1.2,2.1,2.8c0.5,1.5,0.7,2.7,0.5,3.9c-0.2,1.7-0.9,3.2-1.7,4.6c-0.3,0.6-1.3,1.8-2.8,3.9l1-0.3c3-3.1,4.8-6.1,5.4-9.4
		c0.2-1.3,0-2.8-0.6-4.3c-0.7-1.6-1.5-2.6-2.7-2.9c-0.4-0.1-0.8,0-1.3,0.3c-0.5,0.4-0.9,0.6-1.2,0.8c0.3-1.4,0.8-3,1.1-4.1
		c-0.6,0.2-1.2,0.6-1.9,1l-0.6,2.5l-13.1-3.3l-1.9,1.8l14.6,3.3l-0.5,2.4v0c0,0.1,0,0.3-0.1,0.4l0,0.3v0c-0.7,3.6-1.1,7.3-1.3,11
		l-1-0.1c-0.8-3.8-1.9-7.6-3.2-11.6l-3,2c-0.4,2-1,3.6-1.9,5c-0.7,1.1-1.6,2.1-2.7,3.1c-1.5,1.2-2.7,2.2-3.5,2.8l15.2,0.6l-0.1,3.4
		l0,0c0,2.2,0.1,4.4,0.2,6.6c-0.4-0.6-1-1.2-1.8-1.6c-0.9-0.6-1.8-0.9-2.6-0.8c-1.2,0.1-2.2,0.6-2.6,1.6c-0.4,0.8-0.5,1.7-0.4,2.9
		c0.1,0.5,0.2,1.2,0.6,2c0.3,0.8,0.6,1.3,0.9,1.8c-0.3,0.3-0.6,0.6-1,0.6c-0.8,0.1-1.6-0.4-2.3-1.6c-0.6-0.9-0.9-1.9-0.9-2.8
		c-0.1-0.6,0.1-1.3,0.5-2.2c0.7-1.9,1.9-3.3,3.2-4.1c0.8-0.5,2.3-1,4.4-1.4l0.6-1.4c-3.6,0.8-5.9,1.7-7,2.4
		c-2.5,1.6-3.7,4.3-3.4,7.8c0.4,3.1,1.8,4.7,4.1,4.8c-2,1.7-2.7,3.9-2.1,6.4c0.3,0.9,0.6,1.7,1.1,2.4c0.7,1,1.4,1.3,2.2,1.1
		c0.6-0.2,1.4-1,2.4-2.4c1,1,1.9,1.4,2.7,1.1c1-0.3,1.6-1.1,1.9-2.3c0.2-0.9,0.2-1.8-0.1-2.7c-0.2-0.8-0.6-1.6-1.2-2.4
		c-0.4-0.4-0.9-0.9-1.7-1.6c-0.6-0.5-0.9-0.9-0.9-1.1c-0.1-0.6,0.4-1.2,1.4-1.9c0.8-0.6,1.6-0.9,2.1-1c0.3,0,0.6,0,0.8,0
		c0.5,4,1.4,7.8,2.6,11.6l0,0.1c0.4,0.8,0.5,1.6,0.3,2.4c-0.2,1.1-0.7,1.8-1.7,2.2L39.2,222l-0.6,2.5l14.2-6.3l1.3,2.9v0
		c1.6,3.3,3.5,6.4,5.7,9.3l-6.2,5c1.3-3.6,1.4-6.3,0.1-8.4c-0.5-0.9-1.1-1.5-2-2c-1.1-0.7-2.2-0.8-3.2-0.2c-1.6,0.8-1.8,2.4-0.6,4.6
		c0.9,1.6,2,2,3.1,1.2c0.4-0.3,0.7-1,1.1-2.2l0.3,0.4c1.1,1.7,1.1,3.7,0.3,6.5c-0.7,2.3-1.6,4.1-2.9,5.1l-0.6,0.5l0,1.1l11.7-10.1
		l2,2.3l-0.1-2.4C59.2,227.6,56.4,223,54.3,218"/>
	<path class="sust5" d="M80.2,246.1c-1.4-0.8-3-1.2-4.7-1.2c-1.9-0.2-3.2,0.3-4,1.4c-0.8,1.2-0.5,2.4,1,3.4c1.1,0.7,1.9,0.6,2.3-0.1
		c0.4-0.7,0.4-1.4-0.1-2.2c0.8-0.3,1.8-0.4,3-0.3c1,0.1,1.9,0.4,2.6,0.9c1.2,0.7,1.7,1.5,1.2,2.6c-0.3,0.8-1,1.1-2,1
		c-0.3-0.4-0.7-0.7-1.2-1c-0.4-0.3-0.9-0.3-1.4-0.3c-0.6,0.1-1.1,0.4-1.4,0.9c-0.3,0.6-0.3,1.1,0.1,1.7c0.3,0.4,0.7,0.8,1.2,1.1
		c0.6,0.3,1.2,0.4,1.8,0.3c0.5,0.7,0.7,1.3,0.5,1.8c-0.4,0.9-1.3,1.3-2.5,1.2c-0.9-0.1-1.8-0.4-2.7-0.9c-2.5-1.3-4-3.7-4.4-7
		c-0.2-1.6-0.1-4.1,0.5-7.5l-0.6-1.2c-3.1,8.6-1.5,15.2,3.4,17.8c1.4,0.7,2.6,1.2,3.8,1.1c1.6-0.1,2.8-0.8,3.4-2.3
		c0.4-0.8,0.3-2-0.3-3.5c1.2-0.3,2.2-1.3,2.9-2.9c0.5-1,0.3-2-0.5-3C81.7,247.2,81.1,246.5,80.2,246.1"/>
	<path class="sust5" d="M117.4,265.1c2.2-1.4,3.8-2.3,4.8-3.1c-1.8-2-3.2-3.4-4.3-4c2.3,0.3,4.6,0.6,7,0.8l-1,11.5
		C122.3,268,120.1,266.3,117.4,265.1 M121.3,275.3c-0.6,0.1-1.1,0.2-1.5,0.1c-0.8-0.1-1.1-0.4-1-0.9c0.1-0.6,0.8-0.7,2.1-0.6
		c0.8,0.1,1.3,0.3,1.5,0.6l0,0.2C122.4,275,122,275.2,121.3,275.3 M99.8,259.7l0.1-0.4c0.2-0.8,0.1-1.4-0.4-2
		c-0.4-0.4-0.8-0.7-1.4-0.9l-0.2,0c1.1-1,2.5-1.3,4.4-0.7c0.9,0.3,1.7,0.7,2.4,1.6C103.2,258.1,101.5,258.9,99.8,259.7 M135,257.9
		L135,257.9l-2,0l-0.6-1.4c0.1-1,1-1.9,2.5-2.7c1.4-0.8,2.8-1.1,4-1.1c1.8,0.1,3.5,0.5,5,1.3c0.6,0.3,2,1.1,4.4,2.5l-0.4-0.9
		c-3.5-2.8-6.9-4.3-10.5-4.4c-1.5,0-3,0.4-4.5,1.4c-1.6,0.9-2.4,2-2.5,3.2c0,0.4,0.2,0.8,0.6,1.2c0.5,0.5,0.9,0.8,1.1,1l-4.2-0.3
		c-0.1,0-0.3,0-0.5,0h-0.1c-5.3-0.3-10.5-1.1-15.7-1.9c-1.1-0.2-1.6-0.8-1.5-1.9l-0.1-0.2l-0.8-0.8c-0.6,3.2-0.8,6.1-0.8,8.9
		c0-1.9-0.7-3.7-2.2-5.2c-1.3-1.4-2.7-2.1-4.1-2.6c-2.7-0.7-5.1-0.2-7.3,1.6c-0.3,0.2-0.5,0.5-0.6,0.7c-0.1,0.3,0,0.7,0.2,1
		c0.3,0.3,0.5,0.5,0.8,0.6c0.3,0.1,0.7,0.1,1.3,0c0.6,0,1,0,1.3,0c0.7,0.2,0.9,0.8,0.7,1.8c-0.1,0.4-0.5,0.7-1.1,1.1
		c-0.1,0.1-0.6,0.3-1.4,0.6l2.5,1.5c2.5-1,4.9-2.3,7.3-3.6c0.3,0.2,0.6,0.7,1.1,1.5c0.4,0.8,0.6,1.4,0.5,1.8l-1.3,5.8
		c-0.5-0.6-1.2-1.1-2-1.5c-2.7-0.8-5.2-1.8-7.8-2.8c-2.8-1.1-3.9-2.4-3.4-4.1c0.1-0.2,0.2-0.4,0.4-0.6l-0.7-1.1
		c-0.4,0.6-0.7,1.3-1,2.3c-0.4,1.5-0.1,2.9,1.2,4.1c1,0.9,2.2,1.6,3.5,2c0.5,0.2,1.2,0.3,2.2,0.6c1,0.2,1.7,0.4,2.2,0.5
		c2.7,0.6,4.3,1.2,4.7,2.1l0.2,0.4l0,0.1c0,0.1,0.1,0.1,0.1,0.2l1.7,3.1c0.1-0.7,0.1-1.3,0.1-1.8l2.5-14.6c0.9,0.2,1.8,0.4,2.7,0.5
		c0.2,0.2,0.4,0.4,0.5,0.6c0.1,0.2,1,0.6,2.7,1.3c1.8,0.8,2.9,1.4,3.3,1.6c-2.3,1-4.4,2.1-6.1,3.1l2.2,2.9c3.7,0.7,6.3,2.2,7.9,4.6
		c0.1,0.2,0.2,0.4,0.3,0.5c0,0.2,0,0.3,0,0.4c0,0.7-0.1,1-0.4,1.1c-1-0.6-1.9-1-2.7-1.1c-0.7-0.1-1.5,0-2.2,0.2
		c-0.9,0.3-1.5,0.9-1.5,1.7c-0.1,0.8,0.3,1.5,1.3,2c0.7,0.3,1.4,0.6,2.2,0.7c0.9,0.1,2.2-0.4,3.7-1.3c0.7,0.4,1.6,1,2.7,1.8
		c1.1,0.8,1.9,1.6,2.5,2.3l0.2,0.1l0.2-0.1l0-0.2c0-0.6-0.5-1.5-1.7-2.6c-0.9-0.9-1.8-1.7-2.7-2.3c0-0.2-0.1-0.3-0.1-0.5
		c0,0,0.1,0.1,0.1,0.1l1.2-15.4l2.9,0.2l2.1,0.2l-0.7,13.8l1.9,1.6l0.7-15.3l3.2,0.1v0c8.2,0.3,16.4,0.2,24.4-0.4l-1.8-1.4
		C151.3,258.2,143.1,258.1,135,257.9"/>
	<path class="sust5" d="M158.5,262.9c-0.8-0.5-1.5-0.7-2.3-0.6c-1,0.1-2,0.6-3.3,1.8c-0.1-1.6-0.6-2.8-1.4-3.3c-0.6-0.4-1.6-0.6-3-0.6
		c-1.2,0-2.5,0.4-3.8,1c-1.7,0.9-2.5,1.9-2.6,3.3c0,0.7,0.3,1.2,0.8,1.5c0.4,0.3,0.9,0.5,1.5,0.4c1.1,0,1.6-0.5,1.6-1.3
		c0-0.6-0.4-1.1-1-1.4c0.4-0.5,1-1,1.9-1.3c0.7-0.3,1.4-0.4,2.1-0.4c0.5,0,1,0.1,1.6,0.3c0.7,0.3,1.1,0.7,1.1,1.1
		c0,0.5-0.3,0.9-0.9,1.3c-0.6-0.3-1.1-0.4-1.6-0.3c-0.4,0-0.8,0.1-1.2,0.4c-0.5,0.3-0.7,0.8-0.7,1.3c0,0.6,0.3,1.1,0.8,1.4
		c0.4,0.2,0.9,0.4,1.4,0.3c0.5,0,1.1-0.2,1.5-0.6c0.6,0.5,0.9,0.9,0.9,1.3c0,0.9-0.4,1.6-1.2,2c-0.6,0.3-1.3,0.5-2.1,0.5
		c-3.5,0.1-6.3-1.8-8.2-5.6c-0.9-1.9-1.5-3.3-2-4.2l-1.3-0.6c2.5,8.5,6.5,13,11.3,12.8c1.2,0,2.3-0.3,3.3-0.9
		c1.3-0.7,1.9-1.8,1.9-3.2c0-0.9-0.5-1.8-1.4-2.5l0-0.1c0-0.8,0.5-1.5,1.5-2.1c0.8-0.5,1.6-0.8,2.3-0.8c0.6,0,1.1,0.1,1.5,0.3
		c0.5,0.3,0.8,0.9,0.8,1.6c0,0.7-0.1,1.1-0.6,1.1l-0.1,0c-0.4-0.7-0.9-1-1.5-1c-0.5,0-0.9,0.2-1.2,0.5c-0.2,0.5-0.3,0.8-0.3,1
		c0,0.5,0.3,0.9,0.9,1.2c0.5,0.3,0.9,0.4,1.4,0.3c0.8,0,1.5-0.4,2.1-1c0.8-0.7,1.1-1.5,1-2.5C159.9,264.3,159.4,263.5,158.5,262.9"
		/>
	<path class="sust5" d="M249.4,171.6c-1.8,1.9-2.9,4.5-3.4,7.6c-1.8-1.8-3.2-3.1-4.1-4.1c-1.4,2.1-2.4,3.7-2.8,5l-0.9-6.8L249.4,171.6
		L249.4,171.6z M226.6,238.6l5.4,5.7c-2.7-0.3-5.6,0.3-8.9,1.4C224.5,243,225.6,240.6,226.6,238.6 M207.1,260.1
		c1.1-1.6,2-2.8,2.7-3.6l1.9,4.4c-1.3-0.5-2-0.7-2.1-0.7C208.8,259.9,208,259.9,207.1,260.1 M191.3,265.8c-2.1-1.7-4.8-2.8-8.2-3.2
		c2.3-1.9,4.4-3.5,6.4-4.6L191.3,265.8L191.3,265.8z M239.4,203.4L239.4,203.4c0.5-4.4,0.7-8.8,0.5-13.4l4-0.2
		c-1.7,0.8-2.5,1.9-2.5,3.4c0,0.3,0.2,0.8,0.5,1.3c0.4,0.6,0.8,0.9,1.2,0.9c-1.2,1.2-1.9,2.5-2,4c-0.1,1,0.2,1.9,0.8,2.8
		c0.7,1,1.6,1.5,2.9,1.7c1.4,0.2,2.6-0.3,3.5-1.6c0.6-1,1-2.2,1.1-3.5c0-0.6-0.1-1.2-0.3-1.9c-0.3-0.9-0.7-1.3-1.3-1.3
		c-0.7,0-1.3,0.2-1.8,0.8c-0.5,0.5-0.7,1-0.7,1.6c0,0.4,0.1,0.9,0.2,1.3c0.3,0.6,0.7,0.9,1.2,0.9c0.4,0,0.8-0.1,1.2-0.5
		c-0.3,1.8-1.1,2.6-2.2,2.5c-0.8-0.1-1.5-0.6-2-1.5c-0.3-0.7-0.5-1.4-0.4-2.2c0.1-0.8,0.3-1.6,0.7-2.4c0.5-0.9,1.2-1.5,2-1.7
		l-0.2-0.8c-0.4,0.1-0.7,0.1-1,0.1c-0.9,0-1.4-0.5-1.4-1.5c0-0.5,0.2-1,0.5-1.5c0.4-0.6,0.8-0.9,1.4-1l8.2-0.3l1.3-2.2l-15.1,0.8
		l-0.2-2.9c0.1-0.3,0.3-0.5,0.4-0.6c0.5-0.9,0.7-1.9,0.7-2.8c0-1.6,0.2-2.9,0.7-3.8c1.3,1.7,2.7,3.4,4.4,5.2l2.2-2.9
		c-0.2-2.3,0-4.1,0.4-5.4c0.3-0.9,0.9-1.8,1.9-2.8c1.2-1.3,2.1-2.4,2.6-3.2l-15,2.2c-0.2-1.1-0.3-2.3-0.5-3.6l-1.2,2.2
		c0.9,6.1,1.7,11.5,2,17.1c0.4,6.3,0.3,12.5-0.6,18.4l-0.2,0.9c-0.4,0.3-0.8,0.5-1.1,0.6c-0.2,0-0.6,0-1.2,0l-0.6,0.6
		c2.4,0.5,4.6,0.7,6.5,0.5c-1.5,0.3-2.5,0.6-3,0.9c-0.8,0.5-1.5,1.5-1.8,2.9l-0.3,1.2c-0.6,2.3-1.5,4.5-2.3,6.7h0
		c-2.1,4.8-4.9,9.2-8.3,13.1c-3.3,3.7-7.1,7-11.4,9.7l0,0l-1.5,1l-1.3-0.9c-0.4-0.9-0.2-2,0.5-3.5c0.6-1.4,1.3-2.3,2.2-2.9
		c1.2-0.9,2.5-1.6,4.1-1.8c0.6-0.1,2-0.3,4.4-0.7l-0.9-0.4c-4.1,0.1-7.1,0.7-9.6,2.4c-1.1,0.7-1.7,1.9-2.5,3.4
		c-0.7,1.6-0.8,2.9-0.2,4c0.2,0.4,0.6,0.6,1.1,0.7c0.6,0.1,1.1,0.2,1.4,0.3l-3.2,1.8c-1,0.4-1.9,0.1-2.4-0.8c-0.5-0.1-1-0.3-1.4-0.4
		c0.8,1.7,2.1,4,3.8,6.7c-0.5-0.5-1.6-1.1-3-1.8c-1.7-0.8-2.7-1.1-3.2-0.9c-0.8,0.3-1.4,0.8-2,1.5c-0.6,0.8-0.9,1.6-1.1,2.7
		c-0.5-0.7-1.2-1.2-2.3-1.4c-0.9-0.2-1.7-0.2-2.4,0l-2.9,0.9h0c-5.1,1.5-10.4,2.5-15.7,3.4l0,0l-1.9,0.3l-0.9-1.3
		c-0.1-1,0.6-2,1.9-3.1c1.3-1,2.4-1.6,3.6-1.8c1.7-0.2,3.4-0.2,5,0.1c0.6,0.1,2.1,0.7,4.6,1.6l-0.6-0.9c-3.9-2.1-7.3-2.7-10.8-2.2
		c-1.4,0.2-2.7,1-4.1,2.2c-1.4,1.2-2,2.4-1.9,3.6c0.1,0.4,0.3,0.8,0.8,1.1c0.5,0.4,1,0.6,1.3,0.8l-4.7,0.5l2,1.3l2.7-0.3l1.8,13.7
		l2.2,1.2l-2.1-15.2l2.4-0.4c3.9-0.6,7.7-1.4,11.5-2.3l0.2,1c-3.3,1.8-6.6,4.2-9.8,6.7l2.9,2.3c2-0.1,3.7-0.2,5.2,0.2
		c1.2,0.3,2.4,0.9,3.6,1.8c1.6,1.1,2.8,2.1,3.6,2.6l-3.9-15.1l3.2-1h0c1.1-0.3,1.8-0.5,2.1-0.5c0.9,0,1.7,0.3,2.4,1
		c-0.6,0.4-1.1,1-1.5,1.7c-0.6,0.9-0.7,1.7-0.5,2.5c0.2,0.6,0.6,1,1.2,1.3c0.6,0.2,1.1,0.2,1.6,0.1c0.5-0.2,1-0.5,1.5-1
		c0.5-0.5,0.7-1.1,0.8-1.7c1.1,0.7,2.2,0.9,3.2,0.5c1.5-0.5,2-1.6,1.5-2.8c-0.2-0.6-0.7-1-1.5-1.2c-0.3-0.1-1.1-0.3-2.2-0.5
		c-0.1-0.3,0-0.7,0.4-1.1c0.3-0.3,0.7-0.5,0.9-0.7c0.5-0.2,1.3-0.1,2.4,0.3c1.1,0.4,1.8,0.9,2.1,1.5l0.8,1.9l-2.3,2.7
		c-1,1.2-1.9,2.1-2.5,2.9l2.2,2.1c2.6-1,4.9-0.9,7,0.7l1.4-0.2l-0.5-1l0.1,0l-6.6-13.9c0.9-0.4,1.7-0.9,2.5-1.3l1.7-1l6.7,12
		l2.6,0.2l-7.7-13.1l2.5-1.7h0c3-1.9,5.7-4.2,8.1-6.7l0.7,0.7c-1.8,3.2-3.5,6.7-5.4,10.5l3.6,0.8c1.7-1.2,3.2-1.9,4.8-2.3
		c1.3-0.4,2.6-0.5,4.1-0.4c1.9,0.1,3.5,0.2,4.5,0.2l-11-10.8l2-2.4l0.8-0.9l6.5,5.4l3.2-0.9c-0.7-1.5-0.9-3.2-1.1-5.2
		c-0.1-1.6,0.1-3.2,0.4-4.7c1.1,1,2.1,1.8,3,2.4c1.2,0.7,3.1,1.3,5.9,1.9l1.1-1.1c-2-0.4-3.4-0.9-4.3-1.4c-1.9-1-3.6-2.9-5.1-5.5
		l-3.1,2c-0.1,1.5-0.4,3-0.4,4.7c0.1,2.2-0.2,3.7-0.3,4.7l-5-3.8c2.5-3.4,4.6-7.2,6.2-11.2l0,0c0,0,0-0.1,0-0.1c0,0,0-0.1,0.1-0.1
		l0,0c0.6-1.4,1.1-2.9,1.5-4.4c0.9,1.3,1.4,2.2,1.6,2.5c0.6,0.8,1.4,1.4,2.3,1.7c0.6,0.2,1.6,0.4,3,0.3c1.4,0,2.4,0,3,0.2
		c1.4,0.5,2.2,1.6,2.3,3.4c0,0.1-0.1,0.5-0.2,1.2c-0.1,0.6-0.1,1,0,1c0.4,0.2,0.8-0.1,1.1-0.9c0.5-1.1,0.5-2.6,0-4.2
		c-0.5-1.8-1.4-2.9-2.6-3.2c-0.8-0.2-2.2-0.4-3.9-0.5c-1.8-0.1-3.1-0.3-4-0.6c-1.7-0.5-2.2-1.6-2-3.3l0.1-0.1c0.1-0.9,0.5-1.6,1-2.2
		c0.7-0.8,1.5-1.2,2.6-0.9l10.8,2.2l1.9-1.7l-15.2-2.7C239.2,205.6,239.3,204.5,239.4,203.4"/>
	<path class="sust5" d="M251.2,175.1c-0.5,0.1-0.9,0.4-1.1,1c-0.2,0.5-0.2,1-0.2,1.5c0,0.4,0.2,0.8,0.5,1.2c0.4,0.4,0.8,0.7,1.3,0.6
		c0.5-0.1,0.9-0.4,1.1-1c0.2-0.5,0.2-0.9,0.2-1.4c-0.1-0.5-0.2-0.9-0.5-1.3C252.1,175.3,251.7,175.1,251.2,175.1"/>
</g>
<g>
	<path class="sust6" d="M190.9,191.4c0,0-46.7,22.1-47.1,22.3c-0.4-0.2-46.7-22.5-46.7-22.5l-18.3,12.2l65,31.8l64.8-30.7l-17.3-13.3
		L190.9,191.4"/>
	<g>
		<g>
			<path class="sust5" d="M97.2,192.5c0.5,0.3,46.6,22.4,46.6,22.4s46.8-22.1,47.3-22.4c0.5,0.4,14.3,11,15.5,11.9
				c-1.5,0.7-62.4,29.5-62.8,29.7c-0.4-0.2-61.3-30-62.9-30.8C82.2,202.4,96.7,192.7,97.2,192.5"/>
			<path class="sust4" d="M76.4,206.5l67.2,30.5l67.3-29.3l-0.4-0.9c0,0-66.5,28.9-67,29.1c-0.4-0.2-66.7-30.3-66.7-30.3L76.4,206.5"
				/>
			<path class="sust4" d="M71.4,210.9l72.3,28.2l72.1-27.1l-0.4-0.9c0,0-71.4,26.9-71.7,27c-0.4-0.2-71.9-28.1-71.9-28.1L71.4,210.9"
				/>
			<path class="sust4" d="M69.5,213.7l74.2,28l73.9-25.4l-0.3-0.9c0,0-73.3,25.2-73.6,25.3c-0.3-0.1-73.9-27.9-73.9-27.9L69.5,213.7"
				/>
		</g>
		<path class="sust7" d="M140.1,228.6c-0.4-0.3-0.8-0.6-1.3-0.7c-0.5-0.1-1,0-1.5,0c-0.2,0-0.5-0.3-0.7-0.5c-0.1-0.2-0.2-0.5-0.3-0.7
			c-0.2-0.4-0.5-0.5-0.9-0.3c-1.1,0.5-1.5,0.4-2-0.7c-0.3-0.8-0.5-0.9-1.3-0.7c-0.7,0.1-1.2,0-1.5-0.6c-0.4-0.7-0.9-0.9-1.8-0.7
			c-0.7,0.2-1.2-0.1-1.5-0.7c-0.1-0.2-0.2-0.4-0.2-0.5c-0.3-0.6-0.5-0.7-1.1-0.5c-1,0.3-1,0.3-1.4-0.6c-0.3-0.6-0.5-0.8-1.2-0.7
			c-0.1,0-0.3,0-0.4,0c-1.3,0.2-1.3,0.1-1.8-0.9c-0.4-0.9-0.7-1-1.7-0.7c-0.7,0.3-0.9,0.2-1.1-0.6c-0.3-0.9-0.5-1.1-1.5-0.8
			c-1,0.3-1.3,0.2-1.7-0.7c-0.1-0.2-0.1-0.3-0.2-0.5c-0.1-0.4-0.5-0.6-0.9-0.4c-0.1,0-0.3,0.1-0.4,0.1c-1,0.2-1.2,0.1-1.5-0.8
			c-0.3-0.8-0.7-1-1.5-0.6c-0.7,0.4-1,0.3-1.5-0.4c-0.2-0.3-0.4-0.6-0.5-0.8c-0.2-0.4-0.5-0.5-1-0.4c-1,0.3-1.1,0.2-1.6-0.7
			c-0.4-0.9-0.7-1-1.6-0.6c-0.7,0.3-0.9,0.2-1.4-0.3c-0.1-0.2-0.2-0.4-0.4-0.6c-0.4-0.5-0.9-0.9-1.6-0.6c-0.6,0.2-0.8,0-1-0.6
			c-0.1-0.2-0.1-0.3-0.2-0.5c-0.2-0.4-0.5-0.6-0.9-0.5c-0.2,0.1-0.5,0.2-0.8,0.2c-0.7,0.1-1-0.1-1.3-0.8c-0.3-0.9-0.5-1-1.4-1
			c-0.1,0-0.2,0-0.3,0c-0.8,0.3-1.1,0-1.5-0.7c-0.3-0.6-0.6-0.7-1.3-0.6c-1.2,0.2-1.5,0-1.9-1.1c-0.2-0.7-0.4-0.8-1.1-0.6
			c-0.2,0-0.4,0.1-0.6,0.2c-0.4,0.1-0.7,0-0.8-0.4c-0.3-0.9-0.9-1.2-1.8-1.1c-0.1,0-0.2-0.1-0.3-0.1c-0.1-0.4,0.1-0.6,0.4-0.7
			c0.4-0.1,1-0.2,1.3,0c0.7,0.5,1.5,0.7,2.2,1c0.6,0.3,1,0.8,1.4,1.2c0.5,0.5,1,0.8,1.7,0.7c0.3,0,0.7,0.1,1.1,0.2
			c0.7,0.3,1.4,0.6,2.1,0.9c0.3,0.1,0.5,0.3,0.7,0.6c0.6,0.8,1.3,1.2,2.3,1.3c0.3,0,0.6,0.1,0.9,0.2c0.9,0.4,1.7,0.7,2.5,1.1
			c0.3,0.2,0.6,0.5,0.8,0.7c0.3,0.5,0.6,0.7,1.2,0.7c0.7-0.1,1.4,0,1.9,0.6c0.2,0.1,0.4,0.2,0.6,0.3c1.1,0.5,2.2,0.8,2.8,1.9
			c0.2,0.3,0.5,0.4,0.9,0.3c0.8-0.2,1.4,0,2,0.5c0.1,0.1,0.3,0.2,0.4,0.3c1.2,0.2,1.9,1.1,2.7,1.7c0.4,0.3,0.8,0.5,1.4,0.5
			c0.5-0.1,1,0.1,1.4,0.4c0.2,0.1,0.4,0.3,0.6,0.3c0.9,0.4,1.8,0.7,2.4,1.6c0.3,0.5,1,0.7,1.7,0.6c0.5,0,0.9,0.1,1.3,0.3
			c0.6,0.4,1.3,0.6,2,0.9c0.4,0.2,0.8,0.4,1,0.9c0.3,0.7,0.8,0.9,1.5,0.9c0.8,0,1.4,0.1,2,0.6c0.2,0.2,0.5,0.2,0.8,0.4
			c0.9,0.3,1.7,0.7,2.2,1.6c0.2,0.4,0.7,0.7,1.2,0.5c0.7-0.2,1.2,0.1,1.7,0.4c0.6,0.3,1.2,0.5,1.7,0.8c0.4,0.3,0.9,0.6,1.3,1
			c0.1,0.2,0.1,0.4,0.2,0.7C140.3,228.6,140.2,228.6,140.1,228.6"/>
		<path class="sust7" d="M90.9,199.8c0.3-0.9,0.9-1.2,1.5-0.6c0.7,0.8,1.9,0.9,2.7,1.6c0.3,0.2,0.8,0.4,1,0.8c0.3,0.6,0.7,0.8,1.3,0.6
			c0.8-0.2,1.4-0.1,1.9,0.6c0.1,0.1,0.3,0.2,0.4,0.2c0.9,0.1,1.4,0.7,2.2,1.1c0.3,0.1,0.5,0.4,0.7,0.7c0.3,0.5,0.7,0.7,1.3,0.5
			c0.7-0.2,1.2-0.1,1.7,0.5c0.1,0.2,0.4,0.3,0.6,0.3c1.3,0.2,2.1,1,2.9,1.9c0.3,0.3,0.6,0.5,1.1,0.4c0.8-0.2,1.4-0.1,2,0.5
			c0.1,0.1,0.3,0.3,0.5,0.3c1.2,0.1,1.9,0.9,2.6,1.6c0.4,0.4,0.9,0.7,1.5,0.6c0.7-0.1,1.2,0.1,1.7,0.5c0.2,0.2,0.4,0.3,0.6,0.3
			c1.1,0.1,1.7,0.7,2.3,1.5c0.5,0.6,1.1,0.9,1.9,0.8c0.5-0.1,1,0.1,1.4,0.4c0.2,0.2,0.5,0.4,0.8,0.4c1,0.1,1.7,0.7,2.3,1.4
			c0.5,0.6,1.1,0.9,1.9,0.8c0.1,0,0.2,0,0.3,0c1.2,0.5,2.5,0.8,3.6,1.7c0.4,0.3,0.6,0.7,1,0.9c0.3,0.2,0.7,0.4,1.1,0.4
			c0.7-0.1,1.3,0.2,1.9,0.5c0.5,0.2,1,0.5,1.4,0.6c0.7,0.2,1.1,0.8,1.5,1.3c0.1,0.1,0,0.4-0.1,0.6c-0.2-0.1-0.5-0.1-0.6-0.2
			c-0.5-0.8-1.1-0.8-1.9-0.7c-0.8,0.1-0.9,0.1-1.2-0.6c-0.5-0.9-0.5-0.9-1.5-0.7c-1,0.2-1.4,0-1.6-1c-0.2-0.7-0.4-0.8-1-0.8
			c-0.1,0-0.2,0-0.3,0c-1,0.3-1.6,0-2-0.9c-0.2-0.4-0.6-0.6-1.1-0.4c-0.1,0-0.2,0.1-0.3,0.1c-0.9,0.2-1.4-0.1-1.6-0.9
			c-0.3-0.9-0.4-1-1.3-0.9c-0.1,0-0.3,0.1-0.4,0.1c-0.8,0.1-0.8,0.1-1.2-0.6c-0.5-0.8-0.7-0.9-1.6-0.7c-1.1,0.2-1.5-0.1-1.8-1.2
			c-0.2-0.7-0.4-0.9-1.1-0.7c-0.2,0-0.4,0.1-0.6,0.2c-0.5,0.1-0.8,0-1-0.5c-0.6-1.1-0.7-1.1-1.8-0.9c-0.9,0.2-1.4-0.1-1.7-0.9
			c-0.1-0.2-0.1-0.4-0.2-0.6c-0.1-0.4-0.4-0.5-0.9-0.4c-0.1,0.1-0.3,0.1-0.5,0.2c-0.7,0.2-1,0.1-1.3-0.6c-0.3-0.8-0.7-1-1.6-0.8
			c-1.1,0.2-1.6,0-2-1c-0.1-0.2-0.1-0.3-0.2-0.5c-0.2-0.4-0.4-0.5-0.8-0.3c-0.1,0.1-0.3,0.2-0.4,0.2c-0.6,0.2-0.9,0.1-1.2-0.5
			c-0.4-1-0.7-1.2-1.7-1c-1.1,0.2-1.6,0-2.1-0.9c-0.1-0.1-0.1-0.3-0.2-0.4c-0.2-0.3-0.5-0.5-0.8-0.3c-0.1,0-0.2,0.1-0.3,0.2
			c-0.6,0.2-1,0.1-1.2-0.6c-0.4-1.1-0.7-1.3-1.9-0.9c-0.5,0.2-0.8,0.1-1.1-0.3c-0.3-0.4-0.6-0.7-0.9-1c-0.3-0.4-0.6-0.5-1-0.3
			c-0.9,0.4-1.2,0.2-1.4-0.7c-0.1-0.6-0.4-0.8-1-0.9C91.4,200,91.2,199.9,90.9,199.8"/>
		<path class="sust7" d="M95.1,197.2c0.4-0.7,0.7-0.8,1.4-0.7c0.4,0.1,0.8,0.2,1.2,0.5c0.6,0.3,1.2,0.7,2,0.8c0.2,0,0.5,0.3,0.7,0.5
			c0.3,0.3,0.5,0.6,0.8,0.9c0.4,0.4,0.9,0.7,1.5,0.6c0.7-0.1,1.4,0.1,1.9,0.6c0.2,0.2,0.5,0.3,0.8,0.4c0.9,0.1,1.5,0.6,2,1.3
			c0.5,0.7,1,1,1.9,0.8c0.5-0.1,1,0.1,1.4,0.4c0.4,0.3,0.9,0.5,1.3,0.6c0.8,0.3,1.5,0.6,2,1.4c0.4,0.7,0.9,0.8,1.7,0.7
			c0.4-0.1,0.9-0.1,1.1,0.1c0.7,0.6,1.6,0.8,2.5,1.2c0.5,0.2,0.9,0.5,1.1,1c0.3,0.6,0.8,0.9,1.4,0.8c0.8-0.1,1.5,0.1,2.1,0.5
			c0.5,0.4,1.1,0.5,1.7,0.7c0.5,0.2,0.9,0.4,1.1,0.9c0.3,0.7,0.8,1,1.6,0.9c0.8,0,1.4,0.2,2.1,0.5c0.5,0.3,1.2,0.5,1.9,0.7
			c0.4,0.1,0.7,0.3,0.9,0.7c0.3,0.9,1,1.2,1.9,1.2c0.8,0,1.4,0.3,2.1,0.6c0.5,0.3,1.1,0.4,1.6,0.6c0.8,0.3,1.2,1,1.5,1.7
			c0.1,0.1-0.1,0.3-0.1,0.6c-0.3-0.3-0.5-0.4-0.6-0.6c-0.5-0.7-0.8-0.9-1.6-0.6c-1,0.3-1,0.3-1.4-0.7c-0.3-0.7-0.5-0.8-1.2-0.7
			c-0.2,0-0.4,0.1-0.6,0.1c-0.7,0.1-1.2-0.1-1.5-0.8c-0.1-0.2-0.2-0.4-0.3-0.5c-0.4-0.6-0.8-0.7-1.5-0.5c-0.9,0.3-0.9,0.3-1.3-0.6
			c-0.3-0.7-0.5-0.9-1.3-0.8c-0.2,0-0.3,0-0.5,0.1c-0.8,0.2-1.3-0.2-1.7-0.8c-0.1-0.2-0.2-0.4-0.3-0.6c-0.3-0.4-0.7-0.6-1.2-0.4
			c-1,0.3-1,0.3-1.4-0.6c-0.3-0.7-0.8-0.9-1.6-0.8c-1.4,0.2-1.6,0.1-2.2-1.2c-0.3-0.7-0.5-0.8-1.3-0.6c-0.9,0.2-0.9,0.2-1.4-0.5
			c-0.5-0.8-0.9-1-1.8-0.8c-1.1,0.2-1.5,0-1.9-1c-0.4-1-0.4-1-1.6-0.8c-0.8,0.2-0.9,0.1-1.3-0.5c-0.1-0.2-0.2-0.4-0.4-0.6
			c-0.3-0.4-0.7-0.6-1.3-0.4c-1.1,0.4-1.5,0.1-1.9-0.9c-0.3-0.9-0.5-1-1.5-0.8c-0.8,0.2-1.4,0-1.8-0.8c-0.4-0.7-0.6-0.8-1.5-0.5
			c-0.9,0.3-1.4,0-1.7-0.9c-0.3-0.9-0.7-1.1-1.6-1c-0.1,0-0.3,0.1-0.5,0.1c-0.4,0.1-0.8,0-1-0.5c-0.3-0.9-0.8-1.3-1.8-1
			c-0.1,0-0.1,0-0.2,0C95.3,197.4,95.3,197.3,95.1,197.2"/>
		<path class="sust7" d="M201.9,202.6c-0.3,0.1-0.4,0.1-0.6,0.1c-0.8,0-1.3,0.2-1.7,0.9c-0.3,0.5-0.7,0.5-1.2,0.5
			c-1.1-0.2-1.1-0.2-1.5,0.8c-0.3,0.8-0.8,1.1-1.7,0.8c-0.9-0.3-0.9-0.3-1.3,0.6c-0.3,0.6-0.7,0.9-1.3,0.8c-0.2,0-0.4,0-0.6,0
			c-0.7,0-1.1,0.3-1.3,0.9c-0.3,0.9-0.7,1-1.6,0.6c-0.1-0.1-0.3-0.2-0.5-0.2c-0.5-0.2-0.8,0-0.9,0.6c-0.1,0.3-0.1,0.5-0.2,0.8
			c-0.1,0.4-0.5,0.6-0.8,0.4c-1-0.5-1.4,0.2-1.9,0.7c-0.1,0.1-0.2,0.2-0.3,0.3c-0.5,0.7-0.6,0.7-1.4,0.4c-0.1,0-0.3-0.1-0.4-0.1
			c-0.7-0.1-1.1,0.1-1.3,0.8c-0.3,1.1-0.6,1.2-1.6,0.6c-0.1-0.1-0.2-0.1-0.4-0.2c-0.1,0.2-0.3,0.4-0.4,0.5c-0.2,0.3-0.3,0.7-0.5,0.9
			c-0.4,0.4-0.8,0.6-1.4,0.4c-1.1-0.3-1.4-0.2-1.7,0.8c-0.2,0.5-0.5,0.7-1,0.6c-0.2,0-0.3-0.1-0.5-0.1c-1-0.2-1-0.2-1.3,0.8
			c-0.3,0.9-0.7,1.1-1.6,1c-1.2-0.2-1.2-0.2-1.7,0.9c-0.2,0.5-0.5,0.6-0.9,0.4c-0.2-0.1-0.3-0.1-0.5-0.1c-0.7-0.1-1.3,0.2-1.5,0.9
			c-0.3,0.8-0.5,1-1.4,0.9c-0.2,0-0.3-0.1-0.5-0.1c-0.8-0.1-1,0-1.3,0.7c-0.4,0.8-0.4,0.8-1.3,0.7c-0.8-0.1-1,0-1.4,0.6
			c-0.1,0.2-0.2,0.3-0.3,0.5c-0.4,0.7-0.7,0.8-1.5,0.5c-0.9-0.4-1.1-0.3-1.5,0.5c-0.4,0.8-0.9,1.1-1.8,0.8c-0.5-0.2-0.7,0.1-0.9,0.5
			c-0.2,0.3-0.4,0.7-0.6,1c-0.3,0.4-0.7,0.4-1.1,0.2c-1-0.5-1.2-0.4-1.5,0.6c-0.2,0.6-0.4,0.9-0.9,0.7c-1-0.3-1.7,0-2.3,0.8
			c0,0.1-0.1,0.1-0.2,0.1c-0.4-0.3-0.4-0.7,0-1c0.6-0.5,1.1-1,1.9-1.2c0.4-0.1,0.9-0.4,1.3-0.7c0.5-0.3,0.9-0.5,1.5-0.3
			c0.4,0.2,0.8,0,1-0.4c0.6-0.9,1.6-1.1,2.5-1.6c0.2-0.1,0.4-0.1,0.5-0.2c0.8-0.6,1.6-0.9,2.6-0.7c0.2,0.1,0.7-0.3,0.8-0.6
			c0.3-0.6,0.7-0.9,1.3-1.1c0.5-0.1,1-0.4,1.4-0.6c0.6-0.3,1.3-0.5,2-0.6c0.7-0.1,1.4-0.4,1.8-1.1c0.2-0.4,0.6-0.7,1.1-0.7
			c0.3-0.1,0.6-0.2,0.9-0.4c0.7-0.4,1.4-0.7,2.2-0.7c0.3,0,0.7-0.2,1-0.4c0.5-0.4,0.9-0.9,1.4-1.2c0.9-0.5,2-1,3-1.4
			c0.1-0.1,0.4,0,0.5,0c0.7,0.1,1.2-0.1,1.7-0.7c0.6-0.7,1.4-1.3,2.4-1.5c0.3-0.1,0.6-0.3,0.8-0.5c0.4-0.4,0.8-0.5,1.4-0.4
			c0.7,0.1,1.2-0.1,1.6-0.6c0.2-0.3,0.6-0.5,0.9-0.7c0.8-0.5,1.6-0.9,2.4-1.3c0.3-0.2,0.6-0.3,0.9-0.3c0.6,0.1,1.1,0,1.5-0.4
			c0.9-1,2.2-1.3,3.3-2c0.4-0.2,0.9-0.3,1.3-0.3c0.7,0,1.2-0.2,1.6-0.8c0.3-0.6,0.8-0.9,1.5-1.1c0.7-0.3,1.5-0.5,2.1-1
			C200.5,201.5,201.2,201.8,201.9,202.6"/>
		<path class="sust7" d="M197.2,199.6c-0.4,0.1-0.6,0.2-0.8,0.2c-0.9,0.1-0.9,0.1-1.2,1c0,0,0,0.1,0,0.1c-0.2,0.6-0.5,0.8-1.1,0.5
			c-1-0.4-1-0.4-1.5,0.5c-0.5,1-0.9,1.2-2,1c-1.1-0.2-1.3,0-1.8,1c-0.2,0.6-0.5,0.7-1.1,0.5c-1-0.4-1-0.4-1.5,0.6
			c-0.4,0.9-0.9,1.1-1.9,1c-1.1-0.2-1.4,0-1.9,0.9c-0.3,0.6-0.4,0.7-1.1,0.5c-0.2-0.1-0.3-0.1-0.5-0.2c-0.4-0.2-0.7,0-0.9,0.4
			c-0.1,0.2-0.1,0.4-0.2,0.6c-0.4,0.8-0.9,1.1-1.7,1c-1.1-0.2-1.3-0.1-1.9,0.9c-0.3,0.5-0.6,0.6-1.2,0.4c-0.1-0.1-0.3-0.1-0.5-0.2
			c-0.5-0.1-0.8,0.1-0.9,0.5c-0.1,0.2-0.1,0.4-0.2,0.6c-0.3,0.7-0.9,1-1.7,0.8c-1-0.2-1.2-0.2-1.7,0.7c-0.4,0.6-0.8,0.7-1.5,0.6
			c-1-0.2-1.1-0.1-1.4,0.8c-0.3,0.8-0.8,1.1-1.7,1c-1-0.2-1.1-0.2-1.7,0.7c-0.3,0.6-0.8,0.7-1.4,0.6c-1.2-0.2-1.2-0.1-1.6,1
			c-0.3,0.8-0.9,1-1.8,0.6c-0.8-0.4-0.9-0.4-1.2,0.5c-0.3,0.8-0.8,1.1-1.7,1c-1.2-0.1-1.3-0.1-1.7,1c-0.4,0.8-0.8,1-1.7,0.5
			c-0.7-0.4-1-0.3-1.2,0.5c-0.4,1.1-0.4,1.1-1.6,1c-0.7-0.1-1.2,0-1.6,0.6c-0.1,0.1-0.2,0.2-0.4,0.3c-0.5-0.3-0.4-0.6-0.2-0.9
			c0.4-0.4,0.8-0.7,1.2-1c0.8-0.4,1.7-0.8,2.5-1.2c0.4-0.2,0.6-0.3,1-0.1c0.4,0.2,0.8,0.1,1.1-0.2c0.3-0.3,0.6-0.6,0.9-0.9
			c0.4-0.3,0.9-0.5,1.4-0.8c0.2-0.1,0.6-0.2,0.8-0.3c0.8-0.5,1.5-1,2.5-0.7c0.4,0.1,0.8-0.2,1-0.5c0.6-0.9,1.4-1.5,2.5-1.7
			c0.2,0,0.3-0.1,0.4-0.2c0.7-0.6,1.5-0.8,2.4-0.6c0.4,0.1,0.8-0.2,1.1-0.6c0.6-0.9,1.4-1.5,2.5-1.7c0.1,0,0.2,0,0.3-0.1
			c0.8-0.6,1.7-0.9,2.7-0.8c0.3,0,0.7-0.4,0.9-0.6c0.5-0.8,1.3-1.3,2.2-1.5c0,0,0.1,0,0.1,0c1-0.5,2-1,3.2-0.9
			c0.3,0,0.7-0.3,0.8-0.6c0.5-0.8,1.2-1.2,2.1-1.5c0.3-0.1,0.6-0.1,0.8-0.3c0.6-0.6,1.4-0.7,2.2-0.6c0.6,0,1-0.2,1.2-0.7
			c0.4-0.8,1.2-1.2,2-1.5c0.5-0.2,0.9-0.5,1.4-0.7c0.4-0.2,0.8-0.3,1.2-0.3c0.8,0,1.4-0.2,2-0.9c0.4-0.5,1-0.8,1.6-1.1
			c0.6-0.3,1.2-0.4,1.7-0.9C195.9,198.6,196.5,198.8,197.2,199.6"/>
		<path class="sust7" d="M147.7,218.7c-0.1-0.3-0.2-0.6-0.1-0.7c0.4-0.5,0.7-1.1,1.1-1.3c1-0.3,1.8-0.9,2.7-1.2
			c0.4-0.1,0.7-0.2,1.1-0.3c0.9-0.1,1.6-0.3,2-1.1c0.1-0.3,0.4-0.5,0.6-0.6c0.6-0.3,1.3-0.5,1.9-0.8c0.9-0.4,1.7-0.8,2.7-0.7
			c0.6,0,1.1-0.3,1.2-0.9c0.1-0.5,0.5-0.6,0.9-0.8c0.9-0.4,1.8-0.8,2.7-1.2c0.4-0.2,0.7-0.3,1.1-0.2c1.2,0.2,1.2,0.1,1.8-0.9
			c0.2-0.3,0.4-0.6,0.8-0.7c1-0.4,2-0.7,2.9-1.4c0.2-0.2,0.7-0.2,1-0.1c1.1,0.2,1.1,0.1,1.7-0.7c0.2-0.3,0.5-0.6,0.8-0.8
			c1-0.6,2.2-0.8,3.2-1.6c0.2-0.2,0.6-0.1,0.9,0c0.7,0.2,1,0.1,1.3-0.5c0.4-0.7,1-1,1.7-1.4c0.8-0.4,1.6-0.8,2.4-1.2
			c0.4-0.2,0.6-0.3,1-0.1c0.5,0.3,0.9,0.1,1.2-0.3c0.3-0.3,0.6-0.6,0.9-0.9c0.2-0.2,0.4-0.4,0.6-0.5c1.1-0.3,2.1-1,3.1-1.5
			c0.7-0.4,1.3-0.1,1.5,0.9c-0.3-0.1-0.5-0.1-0.8-0.2c-0.6-0.2-0.7-0.1-1,0.5c0,0,0,0.1,0,0.1c-0.4,1.1-0.4,1.1-1.5,1
			c-1-0.1-1.6,0.1-1.9,1.1c-0.3,0.9-0.9,1-1.7,0.6c-0.6-0.3-0.9-0.3-1.2,0.4c-0.1,0.2-0.1,0.4-0.2,0.6c-0.2,0.5-0.6,0.7-1.2,0.7
			c-0.3,0-0.5-0.1-0.8-0.1c-0.5-0.1-0.8,0.2-1.1,0.6c-0.1,0.2-0.2,0.4-0.3,0.6c-0.4,0.8-0.9,0.9-1.7,0.5c-0.6-0.3-0.8-0.3-1.2,0.2
			c-0.1,0.1-0.1,0.1-0.1,0.2c-0.4,0.9-1,1.4-2.1,1.1c-0.4-0.1-0.7,0.1-0.9,0.4c-0.2,0.3-0.3,0.6-0.5,0.8c-0.5,0.7-0.8,0.7-1.6,0.4
			c-0.7-0.3-1.2-0.2-1.6,0.5c-0.1,0.1-0.1,0.2-0.2,0.3c-0.4,0.7-0.6,0.9-1.3,0.7c-0.7-0.2-1.1,0-1.5,0.6c-0.1,0.2-0.3,0.5-0.4,0.7
			c-0.5,0.6-0.7,0.7-1.5,0.4c-1-0.3-1.3-0.2-1.8,0.7c-0.4,0.8-0.5,0.9-1.3,0.7c-0.8-0.2-1.2,0.1-1.6,0.6c-0.1,0.2-0.2,0.4-0.4,0.6
			c-0.3,0.6-0.7,0.7-1.3,0.5c-0.2,0-0.3-0.1-0.5-0.2c-0.8-0.2-1.1,0-1.4,0.7c-0.1,0.2-0.1,0.3-0.2,0.5c-0.2,0.5-0.4,0.6-1,0.5
			c-1.3-0.3-1.7-0.1-2.2,1c-0.3,0.5-0.6,0.7-1.2,0.7c-0.3,0-0.6-0.2-0.9-0.2c-0.6-0.2-0.8-0.1-1,0.5c-0.1,0.1-0.1,0.2-0.1,0.3
			c-0.4,0.9-0.5,0.9-1.4,0.7c-0.7-0.2-1.3,0-1.7,0.6C148.1,218.3,148,218.4,147.7,218.7"/>
		<polyline class="sust4" points="144.2,234.4 143.3,234.4 143.3,213.9 144.2,213.9 144.2,234.4 		"/>
	</g>
</g>
</svg>
